<svg xmlns="http://www.w3.org/2000/svg" xmlns:xl="http://www.w3.org/1999/xlink" width="875" height="599" version="1.1" viewBox="-5 170 875 599"><defs><marker id="FilledArrow_Marker" stroke-linejoin="miter" stroke-miterlimit="10" color="#000" markerHeight="8" markerUnits="strokeWidth" markerWidth="10" orient="auto" overflow="visible" viewBox="-1 -4 10 8"><g><path fill="currentColor" stroke="currentColor" stroke-width="1" d="M 8 0 L 0 -3 L 0 3 Z"/></g></marker></defs><g id="00-full-overview" fill="none" fill-opacity="1" stroke="none" stroke-dasharray="none" stroke-opacity="1"><title>00-full-overview</title><rect width="875" height="599" x="-5" y="170" fill="#fff"/><g id="00-full-overview_Layer_1"><title>Layer 1</title><g id="Graphic_76"><rect width="207.588" height="575.48" x="661" y="192.536" fill="#fff"/><path stroke="gray" stroke-dasharray="4 4" stroke-linecap="round" stroke-linejoin="round" stroke-width="1" d="M 661 192.5359 L 868.588 192.5359 L 868.588 768.0161 L 661 768.0161 Z"/></g><g id="Graphic_73"><rect width="553.485" height="181.45" x="80.016" y="343.5" fill="#fff"/><path stroke="gray" stroke-dasharray="4 4" stroke-linecap="round" stroke-linejoin="round" stroke-width="1" d="M 80.01552 343.5 L 633.5 343.5 L 633.5 524.9502 L 80.01552 524.9502 Z"/></g><g id="Graphic_67"><rect width="363.69" height="233.398" x="117.31" y="171.128" fill="#fff"/><path stroke="gray" stroke-dasharray="4 4" stroke-linecap="round" stroke-linejoin="round" stroke-width="1" d="M 117.31032 171.12778 L 481 171.12778 L 481 404.526 L 117.31032 404.526 Z"/></g><g id="Graphic_48"><rect width="541" height="214.516" x="-3.674" y="553.5" fill="#fff"/><path stroke="gray" stroke-dasharray="4 4" stroke-linecap="round" stroke-linejoin="round" stroke-width="1" d="M -3.6741593 553.5 L 537.32584 553.5 L 537.32584 768.0161 L -3.6741593 768.0161 Z"/></g><g id="Graphic_47"><rect width="62.81" height="41.5" x="128.292" y="358.5" fill="#fff"/><rect width="62.81" height="41.5" x="128.292" y="358.5" stroke="#000" stroke-linecap="round" stroke-linejoin="round" stroke-width="1"/><text fill="#000" transform="translate(133.292 370.026)"><tspan x="11.445" y="15" fill="#000" font-family="Helvetica Neue" font-size="16">SST</tspan></text></g><g id="Graphic_46"><text fill="#000" transform="translate(90 370.026)"><tspan x="0" y="15" fill="#000" font-family="Helvetica Neue" font-size="16">L0</tspan></text></g><g id="Graphic_45"><rect width="62.81" height="41.5" x="128.5" y="410.026" fill="#fff"/><rect width="62.81" height="41.5" x="128.5" y="410.026" stroke="#000" stroke-linecap="round" stroke-linejoin="round" stroke-width="1"/><text fill="#000" transform="translate(133.5 421.552)"><tspan x="11.445" y="15" fill="#000" font-family="Helvetica Neue" font-size="16">SST</tspan></text></g><g id="Graphic_44"><rect width="62.81" height="41.5" x="201.095" y="410.026" fill="#fff"/><rect width="62.81" height="41.5" x="201.095" y="410.026" stroke="#000" stroke-linecap="round" stroke-linejoin="round" stroke-width="1"/><text fill="#000" transform="translate(206.09484 421.552)"><tspan x="11.445" y="15" fill="#000" font-family="Helvetica Neue" font-size="16">SST</tspan></text></g><g id="Graphic_43"><text fill="#000" transform="translate(90.208 421.552)"><tspan x="0" y="15" fill="#000" font-family="Helvetica Neue" font-size="16">L1</tspan></text></g><g id="Graphic_42"><rect width="62.81" height="41.5" x="200.887" y="461.552" fill="#fff"/><rect width="62.81" height="41.5" x="200.887" y="461.552" stroke="#000" stroke-linecap="round" stroke-linejoin="round" stroke-width="1"/><text fill="#000" transform="translate(205.88684 473.078)"><tspan x="11.445" y="15" fill="#000" font-family="Helvetica Neue" font-size="16">SST</tspan></text></g><g id="Graphic_41"><rect width="62.81" height="41.5" x="273.482" y="461.552" fill="#fff"/><rect width="62.81" height="41.5" x="273.482" y="461.552" stroke="#000" stroke-linecap="round" stroke-linejoin="round" stroke-width="1"/><text fill="#000" transform="translate(278.48168 473.078)"><tspan x="11.445" y="15" fill="#000" font-family="Helvetica Neue" font-size="16">SST</tspan></text></g><g id="Graphic_40"><text fill="#000" transform="translate(90 473.078)"><tspan x="0" y="15" fill="#000" font-family="Helvetica Neue" font-size="16">Ln</tspan></text></g><g id="Graphic_39"><rect width="62.81" height="41.5" x="128.292" y="461.552" fill="#fff"/><rect width="62.81" height="41.5" x="128.292" y="461.552" stroke="#000" stroke-linecap="round" stroke-linejoin="round" stroke-width="1"/><text fill="#000" transform="translate(133.292 473.078)"><tspan x="11.445" y="15" fill="#000" font-family="Helvetica Neue" font-size="16">SST</tspan></text></g><g id="Graphic_38"><rect width="62.81" height="41.5" x="346.077" y="461.552" fill="#fff"/><rect width="62.81" height="41.5" x="346.077" y="461.552" stroke="#000" stroke-linecap="round" stroke-linejoin="round" stroke-width="1"/><text fill="#000" transform="translate(351.07652 473.078)"><tspan x="11.445" y="15" fill="#000" font-family="Helvetica Neue" font-size="16">SST</tspan></text></g><g id="Line_37"><line x1="7" x2="646" y1="319" y2="319" stroke="#000" stroke-dasharray="4 4" stroke-linecap="round" stroke-linejoin="round" stroke-width="1"/></g><g id="Graphic_36"><text fill="#000" transform="translate(12 325)"><tspan x="0" y="15" fill="#000" font-family="Helvetica Neue" font-size="16">On Disk</tspan></text></g><g id="Graphic_35"><text fill="#000" transform="translate(12 296.552)"><tspan x="0" y="15" fill="#000" font-family="Helvetica Neue" font-size="16">In Memory</tspan></text></g><g id="Graphic_34"><rect width="62.81" height="41.5" x="128.5" y="245.974" fill="#fff"/><rect width="62.81" height="41.5" x="128.5" y="245.974" stroke="#000" stroke-linecap="round" stroke-linejoin="round" stroke-width="1"/><text fill="#000" transform="translate(133.5 248.276)"><tspan x="8.317" y="15" fill="#000" font-family="Helvetica Neue" font-size="16">Mem </tspan> <tspan x="7.589" y="33.448" fill="#000" font-family="Helvetica Neue" font-size="16">Table</tspan></text></g><g id="Graphic_33"><rect width="62.81" height="41.5" x="201.095" y="245.974" fill="#fff"/><rect width="62.81" height="41.5" x="201.095" y="245.974" stroke="#000" stroke-linecap="round" stroke-linejoin="round" stroke-width="1"/><text fill="#000" transform="translate(206.09484 248.276)"><tspan x="8.317" y="15" fill="#000" font-family="Helvetica Neue" font-size="16">Mem </tspan> <tspan x="7.589" y="33.448" fill="#000" font-family="Helvetica Neue" font-size="16">Table</tspan></text></g><g id="Graphic_32"><rect width="62.81" height="41.5" x="273.69" y="245.974" fill="#fff"/><rect width="62.81" height="41.5" x="273.69" y="245.974" stroke="#000" stroke-linecap="round" stroke-linejoin="round" stroke-width="1"/><text fill="#000" transform="translate(278.68968 248.276)"><tspan x="8.317" y="15" fill="#000" font-family="Helvetica Neue" font-size="16">Mem </tspan> <tspan x="7.589" y="33.448" fill="#000" font-family="Helvetica Neue" font-size="16">Table</tspan></text></g><g id="Graphic_31"><rect width="62.81" height="41.5" x="530.954" y="365.026" fill="#fff"/><rect width="62.81" height="41.5" x="530.954" y="365.026" stroke="#000" stroke-linecap="round" stroke-linejoin="round" stroke-width="1"/><text fill="#000" transform="translate(535.95384 376.552)"><tspan x="9.557" y="15" fill="#000" font-family="Helvetica Neue" font-size="16">WAL</tspan></text></g><g id="Graphic_30"><rect width="124.083" height="28.448" x="500.317" y="252.052" fill="#fff"/><rect width="124.083" height="28.448" x="500.317" y="252.052" stroke="#000" stroke-linecap="round" stroke-linejoin="round" stroke-width="1"/><text fill="#000" transform="translate(505.31726 257.052)"><tspan x="16.53" y="15" fill="#000" font-family="Helvetica Neue" font-size="16">key + value</tspan></text></g><g id="Line_29"><line x1="562.359" x2="562.359" y1="280.5" y2="355.126" stroke="#000" stroke-linecap="round" stroke-linejoin="round" stroke-width="1" marker-end="url(#FilledArrow_Marker)"/></g><g id="Line_28"><line x1="159.867" x2="159.754" y1="287.474" y2="348.6" stroke="#000" stroke-linecap="round" stroke-linejoin="round" stroke-width="1" marker-end="url(#FilledArrow_Marker)"/></g><g id="Line_27"><line x1="500.317" x2="346.4" y1="266.384" y2="266.652" stroke="#000" stroke-linecap="round" stroke-linejoin="round" stroke-width="1" marker-end="url(#FilledArrow_Marker)"/></g><g id="Line_23"><path stroke="#000" stroke-linecap="round" stroke-linejoin="round" stroke-width="1" marker-end="url(#FilledArrow_Marker)" d="M 436.92997 383.00897 C 436.92997 383.00897 456.93 404.82856 456.93 434.00897 C 456.93 452.75967 448.67184 468.88394 442.76857 478.01486"/></g><g id="Graphic_21"><rect width="62.81" height="41.5" x="80.016" y="571.13" fill="#fff"/><rect width="62.81" height="41.5" x="80.016" y="571.13" stroke="#000" stroke-linecap="round" stroke-linejoin="round" stroke-width="1"/><text fill="#000" transform="translate(85.01552 573.432)"><tspan x="9.661" y="15" fill="#000" font-family="Helvetica Neue" font-size="16">Data </tspan> <tspan x="6.109" y="33.448" fill="#000" font-family="Helvetica Neue" font-size="16">Block</tspan></text></g><g id="Graphic_20"><rect width="62.81" height="41.5" x="142.826" y="571.13" fill="#fff"/><rect width="62.81" height="41.5" x="142.826" y="571.13" stroke="#000" stroke-linecap="round" stroke-linejoin="round" stroke-width="1"/><text fill="#000" transform="translate(147.82584 573.432)"><tspan x="9.661" y="15" fill="#000" font-family="Helvetica Neue" font-size="16">Data </tspan> <tspan x="6.109" y="33.448" fill="#000" font-family="Helvetica Neue" font-size="16">Block</tspan></text></g><g id="Graphic_19"><rect width="62.81" height="41.5" x="204.826" y="571.13" fill="#fff"/><rect width="62.81" height="41.5" x="204.826" y="571.13" stroke="#000" stroke-linecap="round" stroke-linejoin="round" stroke-width="1"/><text fill="#000" transform="translate(209.82584 573.432)"><tspan x="9.661" y="15" fill="#000" font-family="Helvetica Neue" font-size="16">Data </tspan> <tspan x="6.109" y="33.448" fill="#000" font-family="Helvetica Neue" font-size="16">Block</tspan></text></g><g id="Graphic_18"><rect width="62.81" height="41.5" x="266.826" y="571.13" fill="#fff"/><rect width="62.81" height="41.5" x="266.826" y="571.13" stroke="#000" stroke-linecap="round" stroke-linejoin="round" stroke-width="1"/><text fill="#000" transform="translate(271.82584 573.432)"><tspan x="9.661" y="15" fill="#000" font-family="Helvetica Neue" font-size="16">Data </tspan> <tspan x="6.109" y="33.448" fill="#000" font-family="Helvetica Neue" font-size="16">Block</tspan></text></g><g id="Graphic_17"><rect width="62.81" height="41.5" x="328.826" y="571.13" fill="#fff"/><rect width="62.81" height="41.5" x="328.826" y="571.13" stroke="#000" stroke-linecap="round" stroke-linejoin="round" stroke-width="1"/><text fill="#000" transform="translate(333.82584 573.432)"><tspan x="9.661" y="15" fill="#000" font-family="Helvetica Neue" font-size="16">Data </tspan> <tspan x="6.109" y="33.448" fill="#000" font-family="Helvetica Neue" font-size="16">Block</tspan></text></g><g id="Graphic_16"><rect width="62.81" height="41.5" x="390.826" y="571.13" fill="#fff"/><rect width="62.81" height="41.5" x="390.826" y="571.13" stroke="#000" stroke-linecap="round" stroke-linejoin="round" stroke-width="1"/><text fill="#000" transform="translate(395.82584 582.656)"><tspan x="6.701" y="15" fill="#000" font-family="Helvetica Neue" font-size="16">Index</tspan></text></g><g id="Line_15"><line x1="128.292" x2="80.016" y1="503.052" y2="571.13" stroke="#7f8080" stroke-linecap="round" stroke-linejoin="round" stroke-width="1"/></g><g id="Line_14"><line x1="191.102" x2="453.636" y1="503.052" y2="571.13" stroke="#7f8080" stroke-linecap="round" stroke-linejoin="round" stroke-width="1"/></g><g id="Graphic_13"><rect width="44.484" height="26.392" x="7" y="697.76" fill="#fff"/><rect width="44.484" height="26.392" x="7" y="697.76" stroke="#000" stroke-linecap="round" stroke-linejoin="round" stroke-width="1"/><text fill="#000" transform="translate(12 701.732)"><tspan x="3.61" y="15" fill="#000" font-family="Helvetica Neue" font-size="16">Key</tspan></text></g><g id="Graphic_12"><rect width="62.81" height="26.392" x="51.484" y="697.76" fill="#fff"/><rect width="62.81" height="26.392" x="51.484" y="697.76" stroke="#000" stroke-linecap="round" stroke-linejoin="round" stroke-width="1"/><text fill="#000" transform="translate(56.48448 701.732)"><tspan x="7.141" y="15" fill="#000" font-family="Helvetica Neue" font-size="16">Value</tspan></text></g><g id="Graphic_11"><rect width="44.484" height="26.392" x="109.568" y="697.76" fill="#fff"/><rect width="44.484" height="26.392" x="109.568" y="697.76" stroke="#000" stroke-linecap="round" stroke-linejoin="round" stroke-width="1"/><text fill="#000" transform="translate(114.56808 701.732)"><tspan x="3.61" y="15" fill="#000" font-family="Helvetica Neue" font-size="16">Key</tspan></text></g><g id="Graphic_10"><rect width="62.81" height="26.392" x="154.053" y="697.76" fill="#fff"/><rect width="62.81" height="26.392" x="154.053" y="697.76" stroke="#000" stroke-linecap="round" stroke-linejoin="round" stroke-width="1"/><text fill="#000" transform="translate(159.05256 701.732)"><tspan x="7.141" y="15" fill="#000" font-family="Helvetica Neue" font-size="16">Value</tspan></text></g><g id="Graphic_9"><rect width="44.484" height="26.392" x="211.568" y="697.76" fill="#fff"/><rect width="44.484" height="26.392" x="211.568" y="697.76" stroke="#000" stroke-linecap="round" stroke-linejoin="round" stroke-width="1"/><text fill="#000" transform="translate(216.56808 701.732)"><tspan x="3.61" y="15" fill="#000" font-family="Helvetica Neue" font-size="16">Key</tspan></text></g><g id="Graphic_8"><rect width="62.81" height="26.392" x="256.053" y="697.76" fill="#fff"/><rect width="62.81" height="26.392" x="256.053" y="697.76" stroke="#000" stroke-linecap="round" stroke-linejoin="round" stroke-width="1"/><text fill="#000" transform="translate(261.05256 701.732)"><tspan x="7.141" y="15" fill="#000" font-family="Helvetica Neue" font-size="16">Value</tspan></text></g><g id="Graphic_7"><rect width="44.484" height="26.392" x="313.568" y="697.76" fill="#fff"/><rect width="44.484" height="26.392" x="313.568" y="697.76" stroke="#000" stroke-linecap="round" stroke-linejoin="round" stroke-width="1"/><text fill="#000" transform="translate(318.56808 701.732)"><tspan x="3.61" y="15" fill="#000" font-family="Helvetica Neue" font-size="16">Key</tspan></text></g><g id="Graphic_6"><rect width="62.81" height="26.392" x="358.053" y="697.76" fill="#fff"/><rect width="62.81" height="26.392" x="358.053" y="697.76" stroke="#000" stroke-linecap="round" stroke-linejoin="round" stroke-width="1"/><text fill="#000" transform="translate(363.05256 701.732)"><tspan x="7.141" y="15" fill="#000" font-family="Helvetica Neue" font-size="16">Value</tspan></text></g><g id="Graphic_5"><rect width="44.484" height="26.392" x="415.568" y="697.76" fill="#fff"/><rect width="44.484" height="26.392" x="415.568" y="697.76" stroke="#000" stroke-linecap="round" stroke-linejoin="round" stroke-width="1"/><text fill="#000" transform="translate(420.5681 701.732)"><tspan x="3.61" y="15" fill="#000" font-family="Helvetica Neue" font-size="16">Key</tspan></text></g><g id="Graphic_4"><rect width="62.81" height="26.392" x="460.053" y="697.76" fill="#fff"/><rect width="62.81" height="26.392" x="460.053" y="697.76" stroke="#000" stroke-linecap="round" stroke-linejoin="round" stroke-width="1"/><text fill="#000" transform="translate(465.05256 701.732)"><tspan x="7.141" y="15" fill="#000" font-family="Helvetica Neue" font-size="16">Value</tspan></text></g><g id="Line_3"><line x1="80.016" x2="7" y1="612.63" y2="697.76" stroke="#7f8080" stroke-linecap="round" stroke-linejoin="round" stroke-width="1"/></g><g id="Line_2"><line x1="142.826" x2="522.863" y1="612.63" y2="697.76" stroke="#7f8080" stroke-linecap="round" stroke-linejoin="round" stroke-width="1"/></g><g id="Graphic_49"><text fill="#000" transform="translate(477.618 743.552)"><tspan x="0" y="16" fill="#000" font-family="Helvetica Neue" font-size="16" font-weight="bold">Week 1</tspan></text></g><g id="Graphic_59"><rect width="101.046" height="41.5" x="511.836" y="421.304" fill="#fff"/><rect width="101.046" height="41.5" x="511.836" y="421.304" stroke="#000" stroke-linecap="round" stroke-linejoin="round" stroke-width="1"/><text fill="#000" transform="translate(516.8359 432.83)"><tspan x="14.851" y="15" fill="#000" font-family="Helvetica Neue" font-size="16">Manifest</tspan></text></g><g id="Graphic_68"><text fill="#000" transform="translate(415.9537 182)"><tspan x="0" y="16" fill="#000" font-family="Helvetica Neue" font-size="16" font-weight="bold">Week 1</tspan></text></g><g id="Graphic_74"><text fill="#000" transform="translate(573.412 500.4861)"><tspan x="0" y="16" fill="#000" font-family="Helvetica Neue" font-size="16" font-weight="bold">Week 2</tspan></text></g><g id="Graphic_75"><rect width="153.012" height="41.5" x="688.288" y="245.974" fill="#fff"/><rect width="153.012" height="41.5" x="688.288" y="245.974" stroke="#000" stroke-linecap="round" stroke-linejoin="round" stroke-width="1"/><text fill="#000" transform="translate(693.2882 257.5)"><tspan x="29.722" y="15" fill="#000" font-family="Helvetica Neue" font-size="16">Write Batch</tspan></text></g><g id="Graphic_77"><text fill="#000" transform="translate(808.5 743.552)"><tspan x="0" y="16" fill="#000" font-family="Helvetica Neue" font-size="16" font-weight="bold">Week 3</tspan></text></g><g id="Graphic_78"><rect width="153.012" height="41.5" x="688.288" y="394.026" fill="#fff"/><rect width="153.012" height="41.5" x="688.288" y="394.026" stroke="#000" stroke-linecap="round" stroke-linejoin="round" stroke-width="1"/><text fill="#000" transform="translate(693.2882 405.552)"><tspan x="30.314" y="15" fill="#000" font-family="Helvetica Neue" font-size="16">Transaction</tspan></text></g><g id="Line_79"><line x1="688.288" x2="624.401" y1="266.555" y2="266.413" stroke="#000" stroke-dasharray="4 4" stroke-linecap="round" stroke-linejoin="round" stroke-width="1"/></g><g id="Graphic_80"><rect width="153.012" height="41.5" x="688.288" y="468.052" fill="#fff"/><rect width="153.012" height="41.5" x="688.288" y="468.052" stroke="#000" stroke-linecap="round" stroke-linejoin="round" stroke-width="1"/><text fill="#000" transform="translate(693.2882 479.578)"><tspan x="32.682" y="15" fill="#000" font-family="Helvetica Neue" font-size="16">Watermark</tspan></text></g><g id="Graphic_81"><rect width="153.012" height="41.5" x="688.288" y="542.078" fill="#fff"/><rect width="153.012" height="41.5" x="688.288" y="542.078" stroke="#000" stroke-linecap="round" stroke-linejoin="round" stroke-width="1"/><text fill="#000" transform="translate(693.2882 545.408)"><tspan x="37.463" y="14" fill="#000" font-family="Helvetica Neue" font-size="15">Optimistic </tspan> <tspan x="1.913" y="31.42" fill="#000" font-family="Helvetica Neue" font-size="15">Concurrency Control</tspan></text></g><g id="Graphic_82"><rect width="153.012" height="41.5" x="688.288" y="320" fill="#fff"/><rect width="153.012" height="41.5" x="688.288" y="320" stroke="#000" stroke-linecap="round" stroke-linejoin="round" stroke-width="1"/><text fill="#000" transform="translate(693.2882 331.526)"><tspan x="16.234" y="15" fill="#000" font-family="Helvetica Neue" font-size="16">Snapshot Read</tspan></text></g><g id="Graphic_83"><rect width="153.012" height="41.5" x="688.288" y="616.104" fill="#fff"/><rect width="153.012" height="41.5" x="688.288" y="616.104" stroke="#000" stroke-linecap="round" stroke-linejoin="round" stroke-width="1"/><text fill="#000" transform="translate(693.2882 618.406)"><tspan x="30.786" y="15" fill="#000" font-family="Helvetica Neue" font-size="16">Serializable </tspan> <tspan x="4.978" y="33.448" fill="#000" font-family="Helvetica Neue" font-size="16">Snapshot Isolation</tspan></text></g><g id="Graphic_84"><rect width="153.012" height="41.5" x="688.288" y="690.13" fill="#fff"/><rect width="153.012" height="41.5" x="688.288" y="690.13" stroke="#000" stroke-linecap="round" stroke-linejoin="round" stroke-width="1"/><text fill="#000" transform="translate(693.2882 701.656)"><tspan x="27.634" y="15" fill="#000" font-family="Helvetica Neue" font-size="16">Timestamps</tspan></text></g><g id="Line_85"><path stroke="#000" stroke-dasharray="4 4" stroke-linecap="round" stroke-linejoin="round" stroke-width="1" d="M 688.2882 710.88 C 688.2882 710.88 649.96164 734.792 579 738.552 C 508.03836 742.312 437.8103 724.152 437.8103 724.152"/></g><g id="Graphic_86"><text fill="#000" transform="translate(685.218 197.5359)"><tspan x="0" y="16" fill="#000" font-family="Helvetica Neue" font-size="16" font-weight="bold">Concurrency Control</tspan></text></g></g></g></svg>