<svg xmlns="http://www.w3.org/2000/svg" xmlns:xl="http://www.w3.org/1999/xlink" width="784" height="308" version="1.1" viewBox="-5 461 784 308"><defs><marker id="FilledArrow_Marker" stroke-linejoin="miter" stroke-miterlimit="10" color="#7f8080" markerHeight="8" markerUnits="strokeWidth" markerWidth="10" orient="auto" overflow="visible" viewBox="-1 -4 10 8"><g><path fill="currentColor" stroke="currentColor" stroke-width="1" d="M 8 0 L 0 -3 L 0 3 Z"/></g></marker></defs><g id="week1-07-overview" fill="none" fill-opacity="1" stroke="none" stroke-dasharray="none" stroke-opacity="1"><title>week1-07-overview</title><rect width="784" height="308" x="-5" y="461" fill="#fff"/><g id="week1-07-overview_Layer_1"><title>Layer 1</title><g id="Graphic_52"><rect width="475.826" height="92.448" x="61.5" y="558.034" fill="#fff"/><path stroke="gray" stroke-dasharray="4 4" stroke-linecap="round" stroke-linejoin="round" stroke-width="1" d="M 61.5 558.03406 L 537.32584 558.03406 L 537.32584 650.48206 L 61.5 650.48206 Z"/></g><g id="Graphic_48"><rect width="541" height="92.448" x="-3.674" y="675.568" fill="#fff"/><path stroke="gray" stroke-dasharray="4 4" stroke-linecap="round" stroke-linejoin="round" stroke-width="1" d="M -3.6741593 675.5681 L 537.32584 675.5681 L 537.32584 768.0161 L -3.6741593 768.0161 Z"/></g><g id="Graphic_39"><rect width="62.81" height="41.5" x="128.292" y="461.552" fill="#fff"/><rect width="62.81" height="41.5" x="128.292" y="461.552" stroke="#000" stroke-linecap="round" stroke-linejoin="round" stroke-width="1"/><text fill="#000" transform="translate(133.292 473.078)"><tspan x="11.445" y="15" fill="#000" font-family="Helvetica Neue" font-size="16">SST</tspan></text></g><g id="Graphic_21"><rect width="62.81" height="41.5" x="80.016" y="571.13" fill="#fff"/><rect width="62.81" height="41.5" x="80.016" y="571.13" stroke="#000" stroke-linecap="round" stroke-linejoin="round" stroke-width="1"/><text fill="#000" transform="translate(85.01552 573.432)"><tspan x="9.661" y="15" fill="#000" font-family="Helvetica Neue" font-size="16">Data </tspan> <tspan x="6.109" y="33.448" fill="#000" font-family="Helvetica Neue" font-size="16">Block</tspan></text></g><g id="Graphic_20"><rect width="62.81" height="41.5" x="142.826" y="571.13" fill="#fff"/><rect width="62.81" height="41.5" x="142.826" y="571.13" stroke="#000" stroke-linecap="round" stroke-linejoin="round" stroke-width="1"/><text fill="#000" transform="translate(147.82584 573.432)"><tspan x="9.661" y="15" fill="#000" font-family="Helvetica Neue" font-size="16">Data </tspan> <tspan x="6.109" y="33.448" fill="#000" font-family="Helvetica Neue" font-size="16">Block</tspan></text></g><g id="Graphic_19"><rect width="62.81" height="41.5" x="204.826" y="571.13" fill="#fff"/><rect width="62.81" height="41.5" x="204.826" y="571.13" stroke="#000" stroke-linecap="round" stroke-linejoin="round" stroke-width="1"/><text fill="#000" transform="translate(209.82584 573.432)"><tspan x="9.661" y="15" fill="#000" font-family="Helvetica Neue" font-size="16">Data </tspan> <tspan x="6.109" y="33.448" fill="#000" font-family="Helvetica Neue" font-size="16">Block</tspan></text></g><g id="Graphic_18"><rect width="62.81" height="41.5" x="266.826" y="571.13" fill="#fff"/><rect width="62.81" height="41.5" x="266.826" y="571.13" stroke="#000" stroke-linecap="round" stroke-linejoin="round" stroke-width="1"/><text fill="#000" transform="translate(271.82584 573.432)"><tspan x="9.661" y="15" fill="#000" font-family="Helvetica Neue" font-size="16">Data </tspan> <tspan x="6.109" y="33.448" fill="#000" font-family="Helvetica Neue" font-size="16">Block</tspan></text></g><g id="Graphic_17"><rect width="62.81" height="41.5" x="328.826" y="571.13" fill="#fff"/><rect width="62.81" height="41.5" x="328.826" y="571.13" stroke="#000" stroke-linecap="round" stroke-linejoin="round" stroke-width="1"/><text fill="#000" transform="translate(333.82584 573.432)"><tspan x="9.661" y="15" fill="#000" font-family="Helvetica Neue" font-size="16">Data </tspan> <tspan x="6.109" y="33.448" fill="#000" font-family="Helvetica Neue" font-size="16">Block</tspan></text></g><g id="Graphic_16"><rect width="62.81" height="41.5" x="390.826" y="571.13" fill="#fff"/><rect width="62.81" height="41.5" x="390.826" y="571.13" stroke="#000" stroke-linecap="round" stroke-linejoin="round" stroke-width="1"/><text fill="#000" transform="translate(395.82584 582.656)"><tspan x="6.701" y="15" fill="#000" font-family="Helvetica Neue" font-size="16">Index</tspan></text></g><g id="Line_15"><line x1="128.292" x2="80.016" y1="503.052" y2="571.13" stroke="#7f8080" stroke-linecap="round" stroke-linejoin="round" stroke-width="1"/></g><g id="Line_14"><line x1="191.102" x2="453.636" y1="503.052" y2="571.13" stroke="#7f8080" stroke-linecap="round" stroke-linejoin="round" stroke-width="1"/></g><g id="Graphic_13"><rect width="44.484" height="26.392" x="7" y="697.76" fill="#fff"/><rect width="44.484" height="26.392" x="7" y="697.76" stroke="#000" stroke-linecap="round" stroke-linejoin="round" stroke-width="1"/><text fill="#000" transform="translate(12 701.732)"><tspan x="3.61" y="15" fill="#000" font-family="Helvetica Neue" font-size="16">Key</tspan></text></g><g id="Graphic_12"><rect width="62.81" height="26.392" x="51.484" y="697.76" fill="#fff"/><rect width="62.81" height="26.392" x="51.484" y="697.76" stroke="#000" stroke-linecap="round" stroke-linejoin="round" stroke-width="1"/><text fill="#000" transform="translate(56.48448 701.732)"><tspan x="7.141" y="15" fill="#000" font-family="Helvetica Neue" font-size="16">Value</tspan></text></g><g id="Graphic_11"><rect width="44.484" height="26.392" x="109.568" y="697.76" fill="#fff"/><rect width="44.484" height="26.392" x="109.568" y="697.76" stroke="#000" stroke-linecap="round" stroke-linejoin="round" stroke-width="1"/><text fill="#000" transform="translate(114.56808 701.732)"><tspan x="3.61" y="15" fill="#000" font-family="Helvetica Neue" font-size="16">Key</tspan></text></g><g id="Graphic_10"><rect width="62.81" height="26.392" x="154.053" y="697.76" fill="#fff"/><rect width="62.81" height="26.392" x="154.053" y="697.76" stroke="#000" stroke-linecap="round" stroke-linejoin="round" stroke-width="1"/><text fill="#000" transform="translate(159.05256 701.732)"><tspan x="7.141" y="15" fill="#000" font-family="Helvetica Neue" font-size="16">Value</tspan></text></g><g id="Graphic_9"><rect width="44.484" height="26.392" x="211.568" y="697.76" fill="#fff"/><rect width="44.484" height="26.392" x="211.568" y="697.76" stroke="#000" stroke-linecap="round" stroke-linejoin="round" stroke-width="1"/><text fill="#000" transform="translate(216.56808 701.732)"><tspan x="3.61" y="15" fill="#000" font-family="Helvetica Neue" font-size="16">Key</tspan></text></g><g id="Graphic_8"><rect width="62.81" height="26.392" x="256.053" y="697.76" fill="#fff"/><rect width="62.81" height="26.392" x="256.053" y="697.76" stroke="#000" stroke-linecap="round" stroke-linejoin="round" stroke-width="1"/><text fill="#000" transform="translate(261.05256 701.732)"><tspan x="7.141" y="15" fill="#000" font-family="Helvetica Neue" font-size="16">Value</tspan></text></g><g id="Graphic_7"><rect width="44.484" height="26.392" x="313.568" y="697.76" fill="#fff"/><rect width="44.484" height="26.392" x="313.568" y="697.76" stroke="#000" stroke-linecap="round" stroke-linejoin="round" stroke-width="1"/><text fill="#000" transform="translate(318.56808 701.732)"><tspan x="3.61" y="15" fill="#000" font-family="Helvetica Neue" font-size="16">Key</tspan></text></g><g id="Graphic_6"><rect width="62.81" height="26.392" x="358.053" y="697.76" fill="#fff"/><rect width="62.81" height="26.392" x="358.053" y="697.76" stroke="#000" stroke-linecap="round" stroke-linejoin="round" stroke-width="1"/><text fill="#000" transform="translate(363.05256 701.732)"><tspan x="7.141" y="15" fill="#000" font-family="Helvetica Neue" font-size="16">Value</tspan></text></g><g id="Graphic_5"><rect width="44.484" height="26.392" x="415.568" y="697.76" fill="#fff"/><rect width="44.484" height="26.392" x="415.568" y="697.76" stroke="#000" stroke-linecap="round" stroke-linejoin="round" stroke-width="1"/><text fill="#000" transform="translate(420.5681 701.732)"><tspan x="3.61" y="15" fill="#000" font-family="Helvetica Neue" font-size="16">Key</tspan></text></g><g id="Graphic_4"><rect width="62.81" height="26.392" x="460.053" y="697.76" fill="#fff"/><rect width="62.81" height="26.392" x="460.053" y="697.76" stroke="#000" stroke-linecap="round" stroke-linejoin="round" stroke-width="1"/><text fill="#000" transform="translate(465.05256 701.732)"><tspan x="7.141" y="15" fill="#000" font-family="Helvetica Neue" font-size="16">Value</tspan></text></g><g id="Line_3"><line x1="80.016" x2="7" y1="612.63" y2="697.76" stroke="#7f8080" stroke-linecap="round" stroke-linejoin="round" stroke-width="1"/></g><g id="Line_2"><line x1="142.826" x2="522.863" y1="612.63" y2="697.76" stroke="#7f8080" stroke-linecap="round" stroke-linejoin="round" stroke-width="1"/></g><g id="Graphic_60"><text fill="#000" transform="translate(608 594.526)"><tspan x="0" y="16" fill="#000" font-family="Helvetica Neue" font-size="16" font-weight="bold">Day 7.1: Bloom Filter</tspan></text></g><g id="Line_61"><line x1="603" x2="547.226" y1="604.258" y2="604.258" stroke="#7f8080" stroke-linecap="round" stroke-linejoin="round" stroke-width="1" marker-end="url(#FilledArrow_Marker)"/></g><g id="Graphic_62"><text fill="#000" transform="translate(573.656 712.0601)"><tspan x="0" y="16" fill="#000" font-family="Helvetica Neue" font-size="16" font-weight="bold">Day 7.2: Key Compression</tspan></text></g><g id="Line_63"><line x1="568.656" x2="547.226" y1="721.792" y2="721.792" stroke="#7f8080" stroke-linecap="round" stroke-linejoin="round" stroke-width="1" marker-end="url(#FilledArrow_Marker)"/></g><g id="Graphic_70"><rect width="62.81" height="41.5" x="452.826" y="571.13" fill="#fff"/><rect width="62.81" height="41.5" x="452.826" y="571.13" stroke="#000" stroke-linecap="round" stroke-linejoin="round" stroke-width="1"/><text fill="#000" transform="translate(457.82584 573.432)"><tspan x="3.141" y="15" fill="#000" font-family="Helvetica Neue" font-size="16">Bloom </tspan> <tspan x="8.781" y="33.448" fill="#000" font-family="Helvetica Neue" font-size="16">Filter</tspan></text></g></g></g></svg>