<svg xmlns="http://www.w3.org/2000/svg" xmlns:xl="http://www.w3.org/1999/xlink" width="704" height="524" version="1.1" viewBox="-5 245 704 524"><defs><marker id="FilledArrow_Marker" stroke-linejoin="miter" stroke-miterlimit="10" color="#000" markerHeight="8" markerUnits="strokeWidth" markerWidth="10" orient="auto" overflow="visible" viewBox="-1 -4 10 8"><g><path fill="currentColor" stroke="currentColor" stroke-width="1" d="M 8 0 L 0 -3 L 0 3 Z"/></g></marker></defs><g id="week1-03-overview" fill="none" fill-opacity="1" stroke="none" stroke-dasharray="none" stroke-opacity="1"><title>week1-03-overview</title><rect width="704" height="524" x="-5" y="245" fill="#fff"/><g id="week1-03-overview_Layer_1"><title>Layer 1</title><g id="Graphic_48"><rect width="541" height="92.448" x="-3.674" y="675.568" fill="#fff"/><path stroke="gray" stroke-dasharray="4 4" stroke-linecap="round" stroke-linejoin="round" stroke-width="1" d="M -3.6741593 675.5681 L 537.32584 675.5681 L 537.32584 768.0161 L -3.6741593 768.0161 Z"/></g><g id="Graphic_47"><rect width="62.81" height="41.5" x="128.292" y="358.5" fill="#fff"/><path stroke="#666" stroke-dasharray="4 4" stroke-linecap="round" stroke-linejoin="round" stroke-width="1" d="M 128.292 358.5 L 191.10232 358.5 L 191.10232 400 L 128.292 400 Z"/><text fill="#666" transform="translate(133.292 370.026)"><tspan x="11.445" y="15" fill="#666" font-family="Helvetica Neue" font-size="16">SST</tspan></text></g><g id="Graphic_46"><text fill="#666" transform="translate(90 370.026)"><tspan x="0" y="15" fill="#666" font-family="Helvetica Neue" font-size="16">L0</tspan></text></g><g id="Graphic_45"><rect width="62.81" height="41.5" x="128.5" y="410.026" fill="#fff"/><path stroke="#666" stroke-dasharray="4 4" stroke-linecap="round" stroke-linejoin="round" stroke-width="1" d="M 128.5 410.026 L 191.31032 410.026 L 191.31032 451.526 L 128.5 451.526 Z"/><text fill="#666" transform="translate(133.5 421.552)"><tspan x="11.445" y="15" fill="#666" font-family="Helvetica Neue" font-size="16">SST</tspan></text></g><g id="Graphic_44"><rect width="62.81" height="41.5" x="201.095" y="410.026" fill="#fff"/><path stroke="#666" stroke-dasharray="4 4" stroke-linecap="round" stroke-linejoin="round" stroke-width="1" d="M 201.09484 410.026 L 263.90516 410.026 L 263.90516 451.526 L 201.09484 451.526 Z"/><text fill="#666" transform="translate(206.09484 421.552)"><tspan x="11.445" y="15" fill="#666" font-family="Helvetica Neue" font-size="16">SST</tspan></text></g><g id="Graphic_43"><text fill="#666" transform="translate(90.208 421.552)"><tspan x="0" y="15" fill="#666" font-family="Helvetica Neue" font-size="16">L1</tspan></text></g><g id="Graphic_42"><rect width="62.81" height="41.5" x="200.887" y="461.552" fill="#fff"/><path stroke="#666" stroke-dasharray="4 4" stroke-linecap="round" stroke-linejoin="round" stroke-width="1" d="M 200.88684 461.552 L 263.69716 461.552 L 263.69716 503.052 L 200.88684 503.052 Z"/><text fill="#666" transform="translate(205.88684 473.078)"><tspan x="11.445" y="15" fill="#666" font-family="Helvetica Neue" font-size="16">SST</tspan></text></g><g id="Graphic_41"><rect width="62.81" height="41.5" x="273.482" y="461.552" fill="#fff"/><path stroke="#666" stroke-dasharray="4 4" stroke-linecap="round" stroke-linejoin="round" stroke-width="1" d="M 273.48168 461.552 L 336.292 461.552 L 336.292 503.052 L 273.48168 503.052 Z"/><text fill="#666" transform="translate(278.48168 473.078)"><tspan x="11.445" y="15" fill="#666" font-family="Helvetica Neue" font-size="16">SST</tspan></text></g><g id="Graphic_40"><text fill="#666" transform="translate(90 473.078)"><tspan x="0" y="15" fill="#666" font-family="Helvetica Neue" font-size="16">Ln</tspan></text></g><g id="Graphic_39"><rect width="62.81" height="41.5" x="128.292" y="461.552" fill="#fff"/><path stroke="#666" stroke-dasharray="4 4" stroke-linecap="round" stroke-linejoin="round" stroke-width="1" d="M 128.292 461.552 L 191.10232 461.552 L 191.10232 503.052 L 128.292 503.052 Z"/><text fill="#666" transform="translate(133.292 473.078)"><tspan x="11.445" y="15" fill="#666" font-family="Helvetica Neue" font-size="16">SST</tspan></text></g><g id="Graphic_38"><rect width="62.81" height="41.5" x="346.077" y="461.552" fill="#fff"/><path stroke="#666" stroke-dasharray="4 4" stroke-linecap="round" stroke-linejoin="round" stroke-width="1" d="M 346.07652 461.552 L 408.88684 461.552 L 408.88684 503.052 L 346.07652 503.052 Z"/><text fill="#666" transform="translate(351.07652 473.078)"><tspan x="11.445" y="15" fill="#666" font-family="Helvetica Neue" font-size="16">SST</tspan></text></g><g id="Line_37"><line x1="7" x2="697.696" y1="319" y2="319" stroke="#000" stroke-dasharray="4 4" stroke-linecap="round" stroke-linejoin="round" stroke-width="1"/></g><g id="Graphic_36"><text fill="#000" transform="translate(12 325)"><tspan x="0" y="15" fill="#000" font-family="Helvetica Neue" font-size="16">On Disk</tspan></text></g><g id="Graphic_35"><text fill="#000" transform="translate(12 296.552)"><tspan x="0" y="15" fill="#000" font-family="Helvetica Neue" font-size="16">In Memory</tspan></text></g><g id="Graphic_34"><rect width="62.81" height="41.5" x="128.5" y="245.974" fill="#fff"/><rect width="62.81" height="41.5" x="128.5" y="245.974" stroke="#000" stroke-linecap="round" stroke-linejoin="round" stroke-width="1"/><text fill="#000" transform="translate(133.5 248.276)"><tspan x="8.317" y="15" fill="#000" font-family="Helvetica Neue" font-size="16">Mem </tspan> <tspan x="7.589" y="33.448" fill="#000" font-family="Helvetica Neue" font-size="16">Table</tspan></text></g><g id="Graphic_33"><rect width="62.81" height="41.5" x="201.095" y="245.974" fill="#fff"/><rect width="62.81" height="41.5" x="201.095" y="245.974" stroke="#000" stroke-linecap="round" stroke-linejoin="round" stroke-width="1"/><text fill="#000" transform="translate(206.09484 248.276)"><tspan x="8.317" y="15" fill="#000" font-family="Helvetica Neue" font-size="16">Mem </tspan> <tspan x="7.589" y="33.448" fill="#000" font-family="Helvetica Neue" font-size="16">Table</tspan></text></g><g id="Graphic_32"><rect width="62.81" height="41.5" x="273.69" y="245.974" fill="#fff"/><rect width="62.81" height="41.5" x="273.69" y="245.974" stroke="#000" stroke-linecap="round" stroke-linejoin="round" stroke-width="1"/><text fill="#000" transform="translate(278.68968 248.276)"><tspan x="8.317" y="15" fill="#000" font-family="Helvetica Neue" font-size="16">Mem </tspan> <tspan x="7.589" y="33.448" fill="#000" font-family="Helvetica Neue" font-size="16">Table</tspan></text></g><g id="Graphic_30"><rect width="124.083" height="28.448" x="500.317" y="252.052" fill="#fff"/><rect width="124.083" height="28.448" x="500.317" y="252.052" stroke="#000" stroke-linecap="round" stroke-linejoin="round" stroke-width="1"/><text fill="#000" transform="translate(505.31726 257.052)"><tspan x="16.53" y="15" fill="#000" font-family="Helvetica Neue" font-size="16">key + value</tspan></text></g><g id="Line_28"><line x1="159.867" x2="159.754" y1="287.474" y2="348.6" stroke="#000" stroke-dasharray="4 4" stroke-linecap="round" stroke-linejoin="round" stroke-width="1" marker-end="url(#FilledArrow_Marker)"/></g><g id="Line_27"><line x1="500.317" x2="346.4" y1="266.384" y2="266.652" stroke="#000" stroke-linecap="round" stroke-linejoin="round" stroke-width="1" marker-end="url(#FilledArrow_Marker)"/></g><g id="Graphic_21"><rect width="62.81" height="41.5" x="80.016" y="571.13" fill="#fff"/><path stroke="gray" stroke-dasharray="4 4" stroke-linecap="round" stroke-linejoin="round" stroke-width="1" d="M 80.01552 571.13 L 142.82584 571.13 L 142.82584 612.63 L 80.01552 612.63 Z"/><text fill="#666" transform="translate(85.01552 573.432)"><tspan x="9.661" y="15" fill="#666" font-family="Helvetica Neue" font-size="16">Data </tspan> <tspan x="6.109" y="33.448" fill="#666" font-family="Helvetica Neue" font-size="16">Block</tspan></text></g><g id="Graphic_20"><rect width="62.81" height="41.5" x="142.826" y="571.13" fill="#fff"/><path stroke="gray" stroke-dasharray="4 4" stroke-linecap="round" stroke-linejoin="round" stroke-width="1" d="M 142.82584 571.13 L 205.63616 571.13 L 205.63616 612.63 L 142.82584 612.63 Z"/><text fill="#666" transform="translate(147.82584 573.432)"><tspan x="9.661" y="15" fill="#666" font-family="Helvetica Neue" font-size="16">Data </tspan> <tspan x="6.109" y="33.448" fill="#666" font-family="Helvetica Neue" font-size="16">Block</tspan></text></g><g id="Graphic_19"><rect width="62.81" height="41.5" x="204.826" y="571.13" fill="#fff"/><path stroke="gray" stroke-dasharray="4 4" stroke-linecap="round" stroke-linejoin="round" stroke-width="1" d="M 204.82584 571.13 L 267.63616 571.13 L 267.63616 612.63 L 204.82584 612.63 Z"/><text fill="#666" transform="translate(209.82584 573.432)"><tspan x="9.661" y="15" fill="#666" font-family="Helvetica Neue" font-size="16">Data </tspan> <tspan x="6.109" y="33.448" fill="#666" font-family="Helvetica Neue" font-size="16">Block</tspan></text></g><g id="Graphic_18"><rect width="62.81" height="41.5" x="266.826" y="571.13" fill="#fff"/><path stroke="gray" stroke-dasharray="4 4" stroke-linecap="round" stroke-linejoin="round" stroke-width="1" d="M 266.82584 571.13 L 329.63616 571.13 L 329.63616 612.63 L 266.82584 612.63 Z"/><text fill="#666" transform="translate(271.82584 573.432)"><tspan x="9.661" y="15" fill="#666" font-family="Helvetica Neue" font-size="16">Data </tspan> <tspan x="6.109" y="33.448" fill="#666" font-family="Helvetica Neue" font-size="16">Block</tspan></text></g><g id="Graphic_17"><rect width="62.81" height="41.5" x="328.826" y="571.13" fill="#fff"/><path stroke="gray" stroke-dasharray="4 4" stroke-linecap="round" stroke-linejoin="round" stroke-width="1" d="M 328.82584 571.13 L 391.63616 571.13 L 391.63616 612.63 L 328.82584 612.63 Z"/><text fill="#666" transform="translate(333.82584 573.432)"><tspan x="9.661" y="15" fill="#666" font-family="Helvetica Neue" font-size="16">Data </tspan> <tspan x="6.109" y="33.448" fill="#666" font-family="Helvetica Neue" font-size="16">Block</tspan></text></g><g id="Graphic_16"><rect width="62.81" height="41.5" x="390.826" y="571.13" fill="#fff"/><path stroke="gray" stroke-dasharray="4 4" stroke-linecap="round" stroke-linejoin="round" stroke-width="1" d="M 390.82584 571.13 L 453.63616 571.13 L 453.63616 612.63 L 390.82584 612.63 Z"/><text fill="#666" transform="translate(395.82584 582.656)"><tspan x="6.701" y="15" fill="#666" font-family="Helvetica Neue" font-size="16">Index</tspan></text></g><g id="Line_15"><line x1="128.292" x2="80.016" y1="503.052" y2="571.13" stroke="#7f8080" stroke-linecap="round" stroke-linejoin="round" stroke-width="1"/></g><g id="Line_14"><line x1="191.102" x2="453.636" y1="503.052" y2="571.13" stroke="#7f8080" stroke-linecap="round" stroke-linejoin="round" stroke-width="1"/></g><g id="Graphic_13"><rect width="44.484" height="26.392" x="7" y="697.76" fill="#fff"/><rect width="44.484" height="26.392" x="7" y="697.76" stroke="#000" stroke-linecap="round" stroke-linejoin="round" stroke-width="1"/><text fill="#000" transform="translate(12 701.732)"><tspan x="3.61" y="15" fill="#000" font-family="Helvetica Neue" font-size="16">Key</tspan></text></g><g id="Graphic_12"><rect width="62.81" height="26.392" x="51.484" y="697.76" fill="#fff"/><rect width="62.81" height="26.392" x="51.484" y="697.76" stroke="#000" stroke-linecap="round" stroke-linejoin="round" stroke-width="1"/><text fill="#000" transform="translate(56.48448 701.732)"><tspan x="7.141" y="15" fill="#000" font-family="Helvetica Neue" font-size="16">Value</tspan></text></g><g id="Graphic_11"><rect width="44.484" height="26.392" x="109.568" y="697.76" fill="#fff"/><rect width="44.484" height="26.392" x="109.568" y="697.76" stroke="#000" stroke-linecap="round" stroke-linejoin="round" stroke-width="1"/><text fill="#000" transform="translate(114.56808 701.732)"><tspan x="3.61" y="15" fill="#000" font-family="Helvetica Neue" font-size="16">Key</tspan></text></g><g id="Graphic_10"><rect width="62.81" height="26.392" x="154.053" y="697.76" fill="#fff"/><rect width="62.81" height="26.392" x="154.053" y="697.76" stroke="#000" stroke-linecap="round" stroke-linejoin="round" stroke-width="1"/><text fill="#000" transform="translate(159.05256 701.732)"><tspan x="7.141" y="15" fill="#000" font-family="Helvetica Neue" font-size="16">Value</tspan></text></g><g id="Graphic_9"><rect width="44.484" height="26.392" x="211.568" y="697.76" fill="#fff"/><rect width="44.484" height="26.392" x="211.568" y="697.76" stroke="#000" stroke-linecap="round" stroke-linejoin="round" stroke-width="1"/><text fill="#000" transform="translate(216.56808 701.732)"><tspan x="3.61" y="15" fill="#000" font-family="Helvetica Neue" font-size="16">Key</tspan></text></g><g id="Graphic_8"><rect width="62.81" height="26.392" x="256.053" y="697.76" fill="#fff"/><rect width="62.81" height="26.392" x="256.053" y="697.76" stroke="#000" stroke-linecap="round" stroke-linejoin="round" stroke-width="1"/><text fill="#000" transform="translate(261.05256 701.732)"><tspan x="7.141" y="15" fill="#000" font-family="Helvetica Neue" font-size="16">Value</tspan></text></g><g id="Graphic_7"><rect width="44.484" height="26.392" x="313.568" y="697.76" fill="#fff"/><rect width="44.484" height="26.392" x="313.568" y="697.76" stroke="#000" stroke-linecap="round" stroke-linejoin="round" stroke-width="1"/><text fill="#000" transform="translate(318.56808 701.732)"><tspan x="3.61" y="15" fill="#000" font-family="Helvetica Neue" font-size="16">Key</tspan></text></g><g id="Graphic_6"><rect width="62.81" height="26.392" x="358.053" y="697.76" fill="#fff"/><rect width="62.81" height="26.392" x="358.053" y="697.76" stroke="#000" stroke-linecap="round" stroke-linejoin="round" stroke-width="1"/><text fill="#000" transform="translate(363.05256 701.732)"><tspan x="7.141" y="15" fill="#000" font-family="Helvetica Neue" font-size="16">Value</tspan></text></g><g id="Graphic_5"><rect width="44.484" height="26.392" x="415.568" y="697.76" fill="#fff"/><rect width="44.484" height="26.392" x="415.568" y="697.76" stroke="#000" stroke-linecap="round" stroke-linejoin="round" stroke-width="1"/><text fill="#000" transform="translate(420.5681 701.732)"><tspan x="3.61" y="15" fill="#000" font-family="Helvetica Neue" font-size="16">Key</tspan></text></g><g id="Graphic_4"><rect width="62.81" height="26.392" x="460.053" y="697.76" fill="#fff"/><rect width="62.81" height="26.392" x="460.053" y="697.76" stroke="#000" stroke-linecap="round" stroke-linejoin="round" stroke-width="1"/><text fill="#000" transform="translate(465.05256 701.732)"><tspan x="7.141" y="15" fill="#000" font-family="Helvetica Neue" font-size="16">Value</tspan></text></g><g id="Line_3"><line x1="80.016" x2="7" y1="612.63" y2="697.76" stroke="#7f8080" stroke-linecap="round" stroke-linejoin="round" stroke-width="1"/></g><g id="Line_2"><line x1="142.826" x2="522.863" y1="612.63" y2="697.76" stroke="#7f8080" stroke-linecap="round" stroke-linejoin="round" stroke-width="1"/></g><g id="Graphic_49"><text fill="#000" transform="translate(361.15398 743.552)"><tspan x="0" y="16" fill="#000" font-family="Helvetica Neue" font-size="16" font-weight="bold">Day 3: Block Encoding</tspan></text></g></g></g></svg>