<svg xmlns="http://www.w3.org/2000/svg" xmlns:xl="http://www.w3.org/1999/xlink" width="517" height="177" version="1.1" viewBox="85 277 517 177"><defs><marker id="FilledArrow_Marker" stroke-linejoin="miter" stroke-miterlimit="10" color="#000" markerHeight="8" markerUnits="strokeWidth" markerWidth="10" orient="auto" overflow="visible" viewBox="-1 -4 10 8"><g><path fill="currentColor" stroke="currentColor" stroke-width="1" d="M 8 0 L 0 -3 L 0 3 Z"/></g></marker></defs><g id="week2-00-two-extremes-1" fill="none" fill-opacity="1" stroke="none" stroke-dasharray="none" stroke-opacity="1"><title>week2-00-two-extremes-1</title><rect width="517" height="177" x="85" y="277" fill="#fff"/><g id="week2-00-two-extremes-1_Layer_1"><title>Layer 1</title><g id="Graphic_47"><rect width="62.81" height="41.5" x="128.292" y="358.5" fill="#fff"/><rect width="62.81" height="41.5" x="128.292" y="358.5" stroke="#000" stroke-linecap="round" stroke-linejoin="round" stroke-width="1"/><text fill="#000" transform="translate(133.292 370.026)"><tspan x="11.445" y="15" fill="#000" font-family="Helvetica Neue" font-size="16">SST</tspan></text></g><g id="Graphic_46"><text fill="#000" transform="translate(90 403.052)"><tspan x="0" y="15" fill="#000" font-family="Helvetica Neue" font-size="16">L0</tspan></text></g><g id="Graphic_45"><rect width="254" height="17" x="143.5" y="409.5" fill="#fff"/><rect width="254" height="17" x="143.5" y="409.5" stroke="#000" stroke-linecap="round" stroke-linejoin="round" stroke-width="1"/><text fill="#000" transform="translate(148.5 408.776)"><tspan x="107.04" y="15" fill="#000" font-family="Helvetica Neue" font-size="16">SST</tspan></text></g><g id="Line_69"><line x1="159.697" x2="159.697" y1="277.5" y2="348.6" stroke="#000" stroke-linecap="round" stroke-linejoin="round" stroke-width="1" marker-end="url(#FilledArrow_Marker)"/></g><g id="Graphic_70"><rect width="254" height="17" x="202" y="383" fill="#fff"/><rect width="254" height="17" x="202" y="383" stroke="#000" stroke-linecap="round" stroke-linejoin="round" stroke-width="1"/><text fill="#000" transform="translate(207 382.276)"><tspan x="107.04" y="15" fill="#000" font-family="Helvetica Neue" font-size="16">SST</tspan></text></g><g id="Graphic_71"><rect width="473.208" height="17" x="128.292" y="436" fill="#fff"/><rect width="473.208" height="17" x="128.292" y="436" stroke="#000" stroke-linecap="round" stroke-linejoin="round" stroke-width="1"/><text fill="#000" transform="translate(133.292 435.276)"><tspan x="216.644" y="15" fill="#000" font-family="Helvetica Neue" font-size="16">SST</tspan></text></g><g id="Graphic_72"><rect width="146" height="17" x="409" y="409.5" fill="#fff"/><rect width="146" height="17" x="409" y="409.5" stroke="#000" stroke-linecap="round" stroke-linejoin="round" stroke-width="1"/><text fill="#000" transform="translate(414 408.776)"><tspan x="53.04" y="15" fill="#000" font-family="Helvetica Neue" font-size="16">SST</tspan></text></g><g id="Graphic_73"><rect width="134.602" height="17" x="466.898" y="383" fill="#fff"/><rect width="134.602" height="17" x="466.898" y="383" stroke="#000" stroke-linecap="round" stroke-linejoin="round" stroke-width="1"/><text fill="#000" transform="translate(471.8977 382.276)"><tspan x="47.341" y="15" fill="#000" font-family="Helvetica Neue" font-size="16">SST</tspan></text></g></g></g></svg>