<svg xmlns="http://www.w3.org/2000/svg" xmlns:xl="http://www.w3.org/1999/xlink" width="453" height="306" version="1.1" viewBox="62 198 453 306"><defs><marker id="FilledArrow_Marker" stroke-linejoin="miter" stroke-miterlimit="10" color="#000" markerHeight="8" markerUnits="strokeWidth" markerWidth="10" orient="auto" overflow="visible" viewBox="-1 -4 10 8"><g><path fill="currentColor" stroke="currentColor" stroke-width="1" d="M 8 0 L 0 -3 L 0 3 Z"/></g></marker></defs><g id="week2-00-tiered" fill="none" fill-opacity="1" stroke="none" stroke-dasharray="none" stroke-opacity="1"><title>week2-00-tiered</title><rect width="453" height="306" x="62" y="198" fill="#fff"/><g id="week2-00-tiered_Layer_1"><title>Layer 1</title><g id="Graphic_78"><rect width="152.905" height="53" x="119.095" y="402.5" fill="#fff"/><path stroke="gray" stroke-dasharray="4 4" stroke-linecap="round" stroke-linejoin="round" stroke-width="1" d="M 119.09484 402.5 L 272 402.5 L 272 455.5 L 119.09484 455.5 Z"/></g><g id="Graphic_67"><rect width="82" height="112.974" x="119" y="282.026" fill="#fff"/><path stroke="gray" stroke-dasharray="4 4" stroke-linecap="round" stroke-linejoin="round" stroke-width="1" d="M 119 282.026 L 201 282.026 L 201 395 L 119 395 Z"/></g><g id="Graphic_47"><rect width="62.81" height="41.5" x="128.292" y="296" fill="#fff"/><rect width="62.81" height="41.5" x="128.292" y="296" stroke="#000" stroke-linecap="round" stroke-linejoin="round" stroke-width="1"/><text fill="#000" transform="translate(133.292 307.526)"><tspan x="11.445" y="15" fill="#000" font-family="Helvetica Neue" font-size="16">SST</tspan></text></g><g id="Graphic_46"><text fill="#000" transform="translate(67.792 307.526)"><tspan x="0" y="15" fill="#000" font-family="Helvetica Neue" font-size="16">Tier 2</tspan></text></g><g id="Graphic_45"><rect width="62.81" height="41.5" x="128.5" y="347.526" fill="#fff"/><rect width="62.81" height="41.5" x="128.5" y="347.526" stroke="#000" stroke-linecap="round" stroke-linejoin="round" stroke-width="1"/><text fill="#000" transform="translate(133.5 359.052)"><tspan x="11.445" y="15" fill="#000" font-family="Helvetica Neue" font-size="16">SST</tspan></text></g><g id="Graphic_43"><text fill="#000" transform="translate(68 359.052)"><tspan x="0" y="15" fill="#000" font-family="Helvetica Neue" font-size="16">Tier 1</tspan></text></g><g id="Graphic_42"><rect width="62.81" height="41.5" x="200.887" y="461.552" fill="#fff"/><rect width="62.81" height="41.5" x="200.887" y="461.552" stroke="#000" stroke-linecap="round" stroke-linejoin="round" stroke-width="1"/><text fill="#000" transform="translate(205.88684 473.078)"><tspan x="11.445" y="15" fill="#000" font-family="Helvetica Neue" font-size="16">SST</tspan></text></g><g id="Graphic_41"><rect width="62.81" height="41.5" x="273.482" y="461.552" fill="#fff"/><rect width="62.81" height="41.5" x="273.482" y="461.552" stroke="#000" stroke-linecap="round" stroke-linejoin="round" stroke-width="1"/><text fill="#000" transform="translate(278.48168 473.078)"><tspan x="11.445" y="15" fill="#000" font-family="Helvetica Neue" font-size="16">SST</tspan></text></g><g id="Graphic_40"><text fill="#000" transform="translate(67.792 473.078)"><tspan x="0" y="15" fill="#000" font-family="Helvetica Neue" font-size="16">Tier 0</tspan></text></g><g id="Graphic_39"><rect width="62.81" height="41.5" x="128.292" y="461.552" fill="#fff"/><rect width="62.81" height="41.5" x="128.292" y="461.552" stroke="#000" stroke-linecap="round" stroke-linejoin="round" stroke-width="1"/><text fill="#000" transform="translate(133.292 473.078)"><tspan x="11.445" y="15" fill="#000" font-family="Helvetica Neue" font-size="16">SST</tspan></text></g><g id="Graphic_38"><rect width="62.81" height="41.5" x="346.077" y="461.552" fill="#fff"/><rect width="62.81" height="41.5" x="346.077" y="461.552" stroke="#000" stroke-linecap="round" stroke-linejoin="round" stroke-width="1"/><text fill="#000" transform="translate(351.07652 473.078)"><tspan x="11.445" y="15" fill="#000" font-family="Helvetica Neue" font-size="16">SST</tspan></text></g><g id="Line_23"><path stroke="#000" stroke-linecap="round" stroke-linejoin="round" stroke-width="1" marker-end="url(#FilledArrow_Marker)" d="M 201 343.76263 C 242.07873 348.44885 295.44256 353.9965 317.5 360.026 C 348.5 368.5 361.5 386.5 346.07652 411.5 C 339.0484 422.8919 311.6731 426.22056 281.90115 427.0682"/></g><g id="Line_69"><line x1="159.697" x2="159.697" y1="199" y2="286.1" stroke="#000" stroke-linecap="round" stroke-linejoin="round" stroke-width="1" marker-end="url(#FilledArrow_Marker)"/></g><g id="Graphic_76"><rect width="62.81" height="41.5" x="201.095" y="407.526" fill="#fff"/><rect width="62.81" height="41.5" x="201.095" y="407.526" stroke="#000" stroke-linecap="round" stroke-linejoin="round" stroke-width="1"/><text fill="#000" transform="translate(206.09484 419.052)"><tspan x="11.445" y="15" fill="#000" font-family="Helvetica Neue" font-size="16">SST</tspan></text></g><g id="Graphic_74"><text fill="#000" transform="translate(68 419.052)"><tspan x="0" y="15" fill="#000" font-family="Helvetica Neue" font-size="16">Tier 3</tspan></text></g><g id="Graphic_73"><rect width="62.81" height="41.5" x="128.5" y="407.526" fill="#fff"/><rect width="62.81" height="41.5" x="128.5" y="407.526" stroke="#000" stroke-linecap="round" stroke-linejoin="round" stroke-width="1"/><text fill="#000" transform="translate(133.5 419.052)"><tspan x="11.445" y="15" fill="#000" font-family="Helvetica Neue" font-size="16">SST</tspan></text></g><g id="Graphic_77"><text fill="#000" transform="translate(373.07893 377.763)"><tspan x="0" y="15" fill="#000" font-family="Helvetica Neue" font-size="16">Tiered Compaction</tspan></text></g></g></g></svg>