<svg xmlns="http://www.w3.org/2000/svg" xmlns:xl="http://www.w3.org/1999/xlink" width="527" height="328" version="1.1" viewBox="85 277 527 328"><defs><marker id="FilledArrow_Marker" stroke-linejoin="miter" stroke-miterlimit="10" color="#000" markerHeight="8" markerUnits="strokeWidth" markerWidth="10" orient="auto" overflow="visible" viewBox="-1 -4 10 8"><g><path fill="currentColor" stroke="currentColor" stroke-width="1" d="M 8 0 L 0 -3 L 0 3 Z"/></g></marker></defs><g id="week2-00-two-extremes-2" fill="none" fill-opacity="1" stroke="none" stroke-dasharray="none" stroke-opacity="1"><title>week2-00-two-extremes-2</title><rect width="527" height="328" x="85" y="277" fill="#fff"/><g id="week2-00-two-extremes-2_Layer_1"><title>Layer 1</title><g id="Graphic_85"><rect width="491.303" height="77" x="119.697" y="527.5" fill="#fff"/><path stroke="gray" stroke-dasharray="4 4" stroke-linecap="round" stroke-linejoin="round" stroke-width="1" d="M 119.69716 527.5 L 611 527.5 L 611 604.5 L 119.69716 604.5 Z"/></g><g id="Graphic_84"><rect width="491.303" height="108" x="119.697" y="378.5" fill="#fff"/><path stroke="gray" stroke-dasharray="4 4" stroke-linecap="round" stroke-linejoin="round" stroke-width="1" d="M 119.69716 378.5 L 611 378.5 L 611 486.5 L 119.69716 486.5 Z"/></g><g id="Graphic_47"><rect width="62.81" height="41.5" x="128.292" y="391.526" fill="#fff"/><rect width="62.81" height="41.5" x="128.292" y="391.526" stroke="#000" stroke-linecap="round" stroke-linejoin="round" stroke-width="1"/><text fill="#000" transform="translate(133.292 403.052)"><tspan x="11.445" y="15" fill="#000" font-family="Helvetica Neue" font-size="16">SST</tspan></text></g><g id="Graphic_46"><text fill="#000" transform="translate(90 403.052)"><tspan x="0" y="15" fill="#000" font-family="Helvetica Neue" font-size="16">L0</tspan></text></g><g id="Line_69"><line x1="159.697" x2="159.697" y1="277.5" y2="381.626" stroke="#000" stroke-linecap="round" stroke-linejoin="round" stroke-width="1" marker-end="url(#FilledArrow_Marker)"/></g><g id="Graphic_70"><rect width="81.708" height="17" x="128.292" y="456.724" fill="#fff"/><rect width="81.708" height="17" x="128.292" y="456.724" stroke="#000" stroke-linecap="round" stroke-linejoin="round" stroke-width="1"/><text fill="#000" transform="translate(133.292 456)"><tspan x="20.894" y="15" fill="#000" font-family="Helvetica Neue" font-size="16">SST</tspan></text></g><g id="Graphic_74"><text fill="#000" transform="translate(90 456)"><tspan x="0" y="15" fill="#000" font-family="Helvetica Neue" font-size="16">L1</tspan></text></g><g id="Graphic_75"><rect width="152" height="17" x="225.5" y="456.724" fill="#fff"/><rect width="152" height="17" x="225.5" y="456.724" stroke="#000" stroke-linecap="round" stroke-linejoin="round" stroke-width="1"/><text fill="#000" transform="translate(230.5 456)"><tspan x="56.04" y="15" fill="#000" font-family="Helvetica Neue" font-size="16">SST</tspan></text></g><g id="Graphic_76"><rect width="125" height="17" x="390" y="456.724" fill="#fff"/><rect width="125" height="17" x="390" y="456.724" stroke="#000" stroke-linecap="round" stroke-linejoin="round" stroke-width="1"/><text fill="#000" transform="translate(395 456)"><tspan x="42.54" y="15" fill="#000" font-family="Helvetica Neue" font-size="16">SST</tspan></text></g><g id="Graphic_77"><rect width="74" height="17" x="527.5" y="456.724" fill="#fff"/><rect width="74" height="17" x="527.5" y="456.724" stroke="#000" stroke-linecap="round" stroke-linejoin="round" stroke-width="1"/><text fill="#000" transform="translate(532.5 456)"><tspan x="17.04" y="15" fill="#000" font-family="Helvetica Neue" font-size="16">SST</tspan></text></g><g id="Graphic_82"><rect width="55.208" height="17" x="129.292" y="569.146" fill="#fff"/><rect width="55.208" height="17" x="129.292" y="569.146" stroke="#000" stroke-linecap="round" stroke-linejoin="round" stroke-width="1"/><text fill="#000" transform="translate(134.292 568.422)"><tspan x="7.644" y="15" fill="#000" font-family="Helvetica Neue" font-size="16">SST</tspan></text></g><g id="Graphic_81"><text fill="#000" transform="translate(91 568.422)"><tspan x="0" y="15" fill="#000" font-family="Helvetica Neue" font-size="16">L1</tspan></text></g><g id="Graphic_80"><rect width="159.5" height="17" x="271" y="569.146" fill="#fff"/><rect width="159.5" height="17" x="271" y="569.146" stroke="#000" stroke-linecap="round" stroke-linejoin="round" stroke-width="1"/><text fill="#000" transform="translate(276 568.422)"><tspan x="59.79" y="15" fill="#000" font-family="Helvetica Neue" font-size="16">SST</tspan></text></g><g id="Graphic_79"><rect width="74" height="17" x="436" y="569.146" fill="#fff"/><rect width="74" height="17" x="436" y="569.146" stroke="#000" stroke-linecap="round" stroke-linejoin="round" stroke-width="1"/><text fill="#000" transform="translate(441 568.422)"><tspan x="17.04" y="15" fill="#000" font-family="Helvetica Neue" font-size="16">SST</tspan></text></g><g id="Graphic_78"><rect width="86" height="17" x="515.5" y="569.146" fill="#fff"/><rect width="86" height="17" x="515.5" y="569.146" stroke="#000" stroke-linecap="round" stroke-linejoin="round" stroke-width="1"/><text fill="#000" transform="translate(520.5 568.422)"><tspan x="23.04" y="15" fill="#000" font-family="Helvetica Neue" font-size="16">SST</tspan></text></g><g id="Graphic_86"><rect width="74" height="17" x="191.5" y="569.146" fill="#fff"/><rect width="74" height="17" x="191.5" y="569.146" stroke="#000" stroke-linecap="round" stroke-linejoin="round" stroke-width="1"/><text fill="#000" transform="translate(196.5 568.422)"><tspan x="17.04" y="15" fill="#000" font-family="Helvetica Neue" font-size="16">SST</tspan></text></g><g id="Line_87"><line x1="365.349" x2="365.349" y1="486.5" y2="517.6" stroke="#000" stroke-linecap="round" stroke-linejoin="round" stroke-width="1" marker-end="url(#FilledArrow_Marker)"/></g><g id="Graphic_88"><text fill="#000" transform="translate(374.5 497.776)"><tspan x="0" y="15" fill="#000" font-family="Helvetica Neue" font-size="16">Full Compaction</tspan></text></g></g></g></svg>