<svg xmlns="http://www.w3.org/2000/svg" xmlns:xl="http://www.w3.org/1999/xlink" width="542" height="405" version="1.1" viewBox="85 204 542 405"><defs><marker id="FilledArrow_Marker" stroke-linejoin="miter" stroke-miterlimit="10" color="#000" markerHeight="8" markerUnits="strokeWidth" markerWidth="10" orient="auto" overflow="visible" viewBox="-1 -4 10 8"><g><path fill="currentColor" stroke="currentColor" stroke-width="1" d="M 8 0 L 0 -3 L 0 3 Z"/></g></marker></defs><g id="week2-04-leveled" fill="none" fill-opacity="1" stroke="none" stroke-dasharray="none" stroke-opacity="1"><title>week2-04-leveled</title><rect width="542" height="405" x="85" y="204" fill="#fff"/><g id="week2-04-leveled_Layer_1"><title>Layer 1</title><g id="Graphic_67"><rect width="145.292" height="105" x="195.708" y="348.5" fill="#fff"/><path stroke="gray" stroke-dasharray="4 4" stroke-linecap="round" stroke-linejoin="round" stroke-width="1" d="M 195.708 348.5 L 341 348.5 L 341 453.5 L 195.708 453.5 Z"/></g><g id="Graphic_47"><rect width="62.81" height="41.5" x="128.292" y="301.974" fill="#fff"/><rect width="62.81" height="41.5" x="128.292" y="301.974" stroke="#000" stroke-linecap="round" stroke-linejoin="round" stroke-width="1"/><text fill="#000" transform="translate(133.292 313.5)"><tspan x="11.445" y="15" fill="#000" font-family="Helvetica Neue" font-size="16">SST</tspan></text></g><g id="Graphic_46"><text fill="#000" transform="translate(90 313.5)"><tspan x="0" y="15" fill="#000" font-family="Helvetica Neue" font-size="16">L0</tspan></text></g><g id="Graphic_45"><rect width="62.81" height="41.5" x="128.5" y="353.5" fill="#fff"/><rect width="62.81" height="41.5" x="128.5" y="353.5" stroke="#000" stroke-linecap="round" stroke-linejoin="round" stroke-width="1"/><text fill="#000" transform="translate(133.5 365.026)"><tspan x="11.445" y="15" fill="#000" font-family="Helvetica Neue" font-size="16">SST</tspan></text></g><g id="Graphic_43"><text fill="#000" transform="translate(90.208 365.026)"><tspan x="0" y="15" fill="#000" font-family="Helvetica Neue" font-size="16">L1</tspan></text></g><g id="Graphic_42"><rect width="62.81" height="41.5" x="200.887" y="406.5" fill="#fff"/><rect width="62.81" height="41.5" x="200.887" y="406.5" stroke="#000" stroke-linecap="round" stroke-linejoin="round" stroke-width="1"/><text fill="#000" transform="translate(205.88684 418.026)"><tspan x="11.445" y="15" fill="#000" font-family="Helvetica Neue" font-size="16">SST</tspan></text></g><g id="Graphic_41"><rect width="62.81" height="41.5" x="273.482" y="406.5" fill="#fff"/><rect width="62.81" height="41.5" x="273.482" y="406.5" stroke="#000" stroke-linecap="round" stroke-linejoin="round" stroke-width="1"/><text fill="#000" transform="translate(278.48168 418.026)"><tspan x="11.445" y="15" fill="#000" font-family="Helvetica Neue" font-size="16">SST</tspan></text></g><g id="Graphic_40"><text fill="#000" transform="translate(90 418.026)"><tspan x="0" y="15" fill="#000" font-family="Helvetica Neue" font-size="16">L2</tspan></text></g><g id="Graphic_39"><rect width="62.81" height="41.5" x="128.292" y="406.5" fill="#fff"/><rect width="62.81" height="41.5" x="128.292" y="406.5" stroke="#000" stroke-linecap="round" stroke-linejoin="round" stroke-width="1"/><text fill="#000" transform="translate(133.292 418.026)"><tspan x="11.445" y="15" fill="#000" font-family="Helvetica Neue" font-size="16">SST</tspan></text></g><g id="Graphic_38"><rect width="62.81" height="41.5" x="346.077" y="406.5" fill="#fff"/><rect width="62.81" height="41.5" x="346.077" y="406.5" stroke="#000" stroke-linecap="round" stroke-linejoin="round" stroke-width="1"/><text fill="#000" transform="translate(351.07652 418.026)"><tspan x="11.445" y="15" fill="#000" font-family="Helvetica Neue" font-size="16">SST</tspan></text></g><g id="Line_69"><line x1="159.697" x2="159.697" y1="204.974" y2="292.074" stroke="#000" stroke-linecap="round" stroke-linejoin="round" stroke-width="1" marker-end="url(#FilledArrow_Marker)"/></g><g id="Graphic_77"><rect width="62.81" height="41.5" x="200.887" y="354.5" fill="#fff"/><rect width="62.81" height="41.5" x="200.887" y="354.5" stroke="#000" stroke-linecap="round" stroke-linejoin="round" stroke-width="1"/><text fill="#000" transform="translate(205.88684 366.026)"><tspan x="11.445" y="15" fill="#000" font-family="Helvetica Neue" font-size="16">SST</tspan></text></g><g id="Graphic_78"><rect width="217.5" height="52.474" x="196.137" y="556" fill="#fff"/><path stroke="gray" stroke-dasharray="4 4" stroke-linecap="round" stroke-linejoin="round" stroke-width="1" d="M 196.13684 556 L 413.63684 556 L 413.63684 608.474 L 196.13684 608.474 Z"/></g><g id="Graphic_79"><rect width="62.81" height="41.5" x="346.208" y="354.5" fill="#fff"/><rect width="62.81" height="41.5" x="346.208" y="354.5" stroke="#000" stroke-linecap="round" stroke-linejoin="round" stroke-width="1"/><text fill="#000" transform="translate(351.208 366.026)"><tspan x="11.445" y="15" fill="#000" font-family="Helvetica Neue" font-size="16">SST</tspan></text></g><g id="Graphic_80"><rect width="62.81" height="41.5" x="272.713" y="562" fill="#fff"/><rect width="62.81" height="41.5" x="272.713" y="562" stroke="#000" stroke-linecap="round" stroke-linejoin="round" stroke-width="1"/><text fill="#000" transform="translate(277.71336 573.526)"><tspan x="11.445" y="15" fill="#000" font-family="Helvetica Neue" font-size="16">SST</tspan></text></g><g id="Graphic_81"><rect width="62.81" height="41.5" x="342.713" y="562" fill="#fff"/><rect width="62.81" height="41.5" x="342.713" y="562" stroke="#000" stroke-linecap="round" stroke-linejoin="round" stroke-width="1"/><text fill="#000" transform="translate(347.71336 573.526)"><tspan x="11.445" y="15" fill="#000" font-family="Helvetica Neue" font-size="16">SST</tspan></text></g><g id="Line_83"><line x1="278.937" x2="297.642" y1="453.5" y2="546.295" stroke="#000" stroke-linecap="round" stroke-linejoin="round" stroke-width="1" marker-end="url(#FilledArrow_Marker)"/></g><g id="Graphic_84"><text fill="#000" transform="translate(311.5 495.526)"><tspan x="0" y="15" fill="#000" font-family="Helvetica Neue" font-size="16">Leveled Compaction</tspan></text></g><g id="Graphic_86"><rect width="62.81" height="41.5" x="418.671" y="406.5" fill="#fff"/><rect width="62.81" height="41.5" x="418.671" y="406.5" stroke="#000" stroke-linecap="round" stroke-linejoin="round" stroke-width="1"/><text fill="#000" transform="translate(423.67136 418.026)"><tspan x="11.445" y="15" fill="#000" font-family="Helvetica Neue" font-size="16">SST</tspan></text></g><g id="Graphic_87"><rect width="62.81" height="41.5" x="490.671" y="406.5" fill="#fff"/><rect width="62.81" height="41.5" x="490.671" y="406.5" stroke="#000" stroke-linecap="round" stroke-linejoin="round" stroke-width="1"/><text fill="#000" transform="translate(495.67136 418.026)"><tspan x="11.445" y="15" fill="#000" font-family="Helvetica Neue" font-size="16">SST</tspan></text></g><g id="Graphic_88"><rect width="62.81" height="41.5" x="202.713" y="562" fill="#fff"/><rect width="62.81" height="41.5" x="202.713" y="562" stroke="#000" stroke-linecap="round" stroke-linejoin="round" stroke-width="1"/><text fill="#000" transform="translate(207.71336 573.526)"><tspan x="11.445" y="15" fill="#000" font-family="Helvetica Neue" font-size="16">SST</tspan></text></g><g id="Graphic_89"><rect width="62.81" height="41.5" x="128.5" y="561.487" fill="#fff"/><rect width="62.81" height="41.5" x="128.5" y="561.487" stroke="#000" stroke-linecap="round" stroke-linejoin="round" stroke-width="1"/><text fill="#000" transform="translate(133.5 573.013)"><tspan x="11.445" y="15" fill="#000" font-family="Helvetica Neue" font-size="16">SST</tspan></text></g><g id="Graphic_94"><rect width="62.81" height="41.5" x="418.671" y="561.487" fill="#fff"/><rect width="62.81" height="41.5" x="418.671" y="561.487" stroke="#000" stroke-linecap="round" stroke-linejoin="round" stroke-width="1"/><text fill="#000" transform="translate(423.67136 573.013)"><tspan x="11.445" y="15" fill="#000" font-family="Helvetica Neue" font-size="16">SST</tspan></text></g><g id="Graphic_93"><rect width="62.81" height="41.5" x="491.266" y="561.487" fill="#fff"/><rect width="62.81" height="41.5" x="491.266" y="561.487" stroke="#000" stroke-linecap="round" stroke-linejoin="round" stroke-width="1"/><text fill="#000" transform="translate(496.2662 573.013)"><tspan x="11.445" y="15" fill="#000" font-family="Helvetica Neue" font-size="16">SST</tspan></text></g><g id="Graphic_92"><rect width="62.81" height="41.5" x="563.266" y="561.487" fill="#fff"/><rect width="62.81" height="41.5" x="563.266" y="561.487" stroke="#000" stroke-linecap="round" stroke-linejoin="round" stroke-width="1"/><text fill="#000" transform="translate(568.2662 573.013)"><tspan x="11.445" y="15" fill="#000" font-family="Helvetica Neue" font-size="16">SST</tspan></text></g><g id="Graphic_96"><rect width="62.81" height="41.5" x="128.5" y="505" fill="#fff"/><rect width="62.81" height="41.5" x="128.5" y="505" stroke="#000" stroke-linecap="round" stroke-linejoin="round" stroke-width="1"/><text fill="#000" transform="translate(133.5 516.526)"><tspan x="11.445" y="15" fill="#000" font-family="Helvetica Neue" font-size="16">SST</tspan></text></g><g id="Graphic_97"><rect width="62.81" height="41.5" x="200.887" y="505" fill="#fff"/><rect width="62.81" height="41.5" x="200.887" y="505" stroke="#000" stroke-linecap="round" stroke-linejoin="round" stroke-width="1"/><text fill="#000" transform="translate(205.88684 516.526)"><tspan x="11.445" y="15" fill="#000" font-family="Helvetica Neue" font-size="16">SST</tspan></text></g><g id="Graphic_99"><text fill="#000" transform="translate(90.208 516.526)"><tspan x="0" y="15" fill="#000" font-family="Helvetica Neue" font-size="16">L1</tspan></text></g><g id="Graphic_98"><text fill="#000" transform="translate(90.208 573.526)"><tspan x="0" y="15" fill="#000" font-family="Helvetica Neue" font-size="16">L2</tspan></text></g></g></g></svg>