<svg xmlns="http://www.w3.org/2000/svg" xmlns:xl="http://www.w3.org/1999/xlink" width="693" height="236" version="1.1" viewBox="6 170 693 236"><defs><marker id="FilledArrow_Marker" stroke-linejoin="miter" stroke-miterlimit="10" color="#000" markerHeight="8" markerUnits="strokeWidth" markerWidth="10" orient="auto" overflow="visible" viewBox="-1 -4 10 8"><g><path fill="currentColor" stroke="currentColor" stroke-width="1" d="M 8 0 L 0 -3 L 0 3 Z"/></g></marker></defs><g id="week1-05-overview" fill="none" fill-opacity="1" stroke="none" stroke-dasharray="none" stroke-opacity="1"><title>week1-05-overview</title><rect width="693" height="236" x="6" y="170" fill="#fff"/><g id="week1-05-overview_Layer_1"><title>Layer 1</title><g id="Graphic_67"><rect width="363.69" height="233.398" x="117.31" y="171.128" fill="#fff"/><path stroke="gray" stroke-dasharray="4 4" stroke-linecap="round" stroke-linejoin="round" stroke-width="1" d="M 117.31032 171.12778 L 481 171.12778 L 481 404.526 L 117.31032 404.526 Z"/></g><g id="Graphic_46"><text fill="#000" transform="translate(90 370.026)"><tspan x="0" y="15" fill="#000" font-family="Helvetica Neue" font-size="16">L0</tspan></text></g><g id="Graphic_39"><rect width="62.81" height="41.5" x="128.5" y="358.5" fill="#fff"/><rect width="62.81" height="41.5" x="128.5" y="358.5" stroke="#000" stroke-linecap="round" stroke-linejoin="round" stroke-width="1"/><text fill="#000" transform="translate(133.5 370.026)"><tspan x="11.445" y="15" fill="#000" font-family="Helvetica Neue" font-size="16">SST</tspan></text></g><g id="Line_37"><line x1="7" x2="697.696" y1="319" y2="319" stroke="#000" stroke-dasharray="4 4" stroke-linecap="round" stroke-linejoin="round" stroke-width="1"/></g><g id="Graphic_36"><text fill="#000" transform="translate(12 325)"><tspan x="0" y="15" fill="#000" font-family="Helvetica Neue" font-size="16">On Disk</tspan></text></g><g id="Graphic_35"><text fill="#000" transform="translate(12 296.552)"><tspan x="0" y="15" fill="#000" font-family="Helvetica Neue" font-size="16">In Memory</tspan></text></g><g id="Graphic_34"><rect width="62.81" height="41.5" x="128.5" y="245.974" fill="#fff"/><rect width="62.81" height="41.5" x="128.5" y="245.974" stroke="#000" stroke-linecap="round" stroke-linejoin="round" stroke-width="1"/><text fill="#000" transform="translate(133.5 248.276)"><tspan x="8.317" y="15" fill="#000" font-family="Helvetica Neue" font-size="16">Mem </tspan> <tspan x="7.589" y="33.448" fill="#000" font-family="Helvetica Neue" font-size="16">Table</tspan></text></g><g id="Graphic_33"><rect width="62.81" height="41.5" x="201.095" y="245.974" fill="#fff"/><rect width="62.81" height="41.5" x="201.095" y="245.974" stroke="#000" stroke-linecap="round" stroke-linejoin="round" stroke-width="1"/><text fill="#000" transform="translate(206.09484 248.276)"><tspan x="8.317" y="15" fill="#000" font-family="Helvetica Neue" font-size="16">Mem </tspan> <tspan x="7.589" y="33.448" fill="#000" font-family="Helvetica Neue" font-size="16">Table</tspan></text></g><g id="Graphic_32"><rect width="62.81" height="41.5" x="273.69" y="245.974" fill="#fff"/><rect width="62.81" height="41.5" x="273.69" y="245.974" stroke="#000" stroke-linecap="round" stroke-linejoin="round" stroke-width="1"/><text fill="#000" transform="translate(278.68968 248.276)"><tspan x="8.317" y="15" fill="#000" font-family="Helvetica Neue" font-size="16">Mem </tspan> <tspan x="7.589" y="33.448" fill="#000" font-family="Helvetica Neue" font-size="16">Table</tspan></text></g><g id="Graphic_30"><rect width="124.083" height="28.448" x="500.317" y="252.052" fill="#fff"/><rect width="124.083" height="28.448" x="500.317" y="252.052" stroke="#000" stroke-linecap="round" stroke-linejoin="round" stroke-width="1"/><text fill="#000" transform="translate(505.31726 257.052)"><tspan x="16.53" y="15" fill="#000" font-family="Helvetica Neue" font-size="16">key + value</tspan></text></g><g id="Line_28"><line x1="159.905" x2="159.905" y1="287.474" y2="348.6" stroke="#000" stroke-linecap="round" stroke-linejoin="round" stroke-width="1" marker-end="url(#FilledArrow_Marker)"/></g><g id="Line_27"><line x1="500.317" x2="346.4" y1="266.384" y2="266.652" stroke="#000" stroke-linecap="round" stroke-linejoin="round" stroke-width="1" marker-end="url(#FilledArrow_Marker)"/></g><g id="Graphic_68"><text fill="#000" transform="translate(284 181)"><tspan x="0" y="16" fill="#000" font-family="Helvetica Neue" font-size="16" font-weight="bold">Day 5+6: Storage Engine</tspan> <tspan x="49.52" y="35.464" fill="#000" font-family="Helvetica Neue" font-size="16" font-weight="bold">Read + Write Path</tspan></text></g><g id="Graphic_69"><rect width="62.81" height="41.5" x="200.887" y="358.5" fill="#fff"/><rect width="62.81" height="41.5" x="200.887" y="358.5" stroke="#000" stroke-linecap="round" stroke-linejoin="round" stroke-width="1"/><text fill="#000" transform="translate(205.88684 370.026)"><tspan x="11.445" y="15" fill="#000" font-family="Helvetica Neue" font-size="16">SST</tspan></text></g><g id="Graphic_70"><rect width="62.81" height="41.5" x="272.887" y="358.5" fill="#fff"/><rect width="62.81" height="41.5" x="272.887" y="358.5" stroke="#000" stroke-linecap="round" stroke-linejoin="round" stroke-width="1"/><text fill="#000" transform="translate(277.88684 370.026)"><tspan x="11.445" y="15" fill="#000" font-family="Helvetica Neue" font-size="16">SST</tspan></text></g><g id="Graphic_71"><rect width="62.81" height="41.5" x="344.887" y="358.5" fill="#fff"/><rect width="62.81" height="41.5" x="344.887" y="358.5" stroke="#000" stroke-linecap="round" stroke-linejoin="round" stroke-width="1"/><text fill="#000" transform="translate(349.88684 370.026)"><tspan x="11.445" y="15" fill="#000" font-family="Helvetica Neue" font-size="16">SST</tspan></text></g></g></g></svg>