<svg xmlns="http://www.w3.org/2000/svg" xmlns:xl="http://www.w3.org/1999/xlink" width="765" height="268" version="1.1" viewBox="6 245 765 268"><defs><marker id="FilledArrow_Marker" stroke-linejoin="miter" stroke-miterlimit="10" color="#000" markerHeight="8" markerUnits="strokeWidth" markerWidth="10" orient="auto" overflow="visible" viewBox="-1 -4 10 8"><g><path fill="currentColor" stroke="currentColor" stroke-width="1" d="M 8 0 L 0 -3 L 0 3 Z"/></g></marker><marker id="FilledArrow_Marker_2" stroke-linejoin="miter" stroke-miterlimit="10" color="#7f8080" markerHeight="8" markerUnits="strokeWidth" markerWidth="10" orient="auto" overflow="visible" viewBox="-1 -4 10 8"><g><path fill="currentColor" stroke="currentColor" stroke-width="1" d="M 8 0 L 0 -3 L 0 3 Z"/></g></marker></defs><g id="week2-05-overview" fill="none" fill-opacity="1" stroke="none" stroke-dasharray="none" stroke-opacity="1"><title>week2-05-overview</title><rect width="765" height="268" x="6" y="245" fill="#fff"/><g id="week2-05-overview_Layer_1"><title>Layer 1</title><g id="Graphic_47"><rect width="62.81" height="41.5" x="128.292" y="358.5" fill="#fff"/><rect width="62.81" height="41.5" x="128.292" y="358.5" stroke="#000" stroke-linecap="round" stroke-linejoin="round" stroke-width="1"/><text fill="#000" transform="translate(133.292 370.026)"><tspan x="11.445" y="15" fill="#000" font-family="Helvetica Neue" font-size="16">SST</tspan></text></g><g id="Graphic_46"><text fill="#000" transform="translate(90 370.026)"><tspan x="0" y="15" fill="#000" font-family="Helvetica Neue" font-size="16">L0</tspan></text></g><g id="Graphic_45"><rect width="62.81" height="41.5" x="128.5" y="410.026" fill="#fff"/><rect width="62.81" height="41.5" x="128.5" y="410.026" stroke="#000" stroke-linecap="round" stroke-linejoin="round" stroke-width="1"/><text fill="#000" transform="translate(133.5 421.552)"><tspan x="11.445" y="15" fill="#000" font-family="Helvetica Neue" font-size="16">SST</tspan></text></g><g id="Graphic_44"><rect width="62.81" height="41.5" x="201.095" y="410.026" fill="#fff"/><rect width="62.81" height="41.5" x="201.095" y="410.026" stroke="#000" stroke-linecap="round" stroke-linejoin="round" stroke-width="1"/><text fill="#000" transform="translate(206.09484 421.552)"><tspan x="11.445" y="15" fill="#000" font-family="Helvetica Neue" font-size="16">SST</tspan></text></g><g id="Graphic_43"><text fill="#000" transform="translate(90.208 421.552)"><tspan x="0" y="15" fill="#000" font-family="Helvetica Neue" font-size="16">L1</tspan></text></g><g id="Graphic_42"><rect width="62.81" height="41.5" x="200.887" y="461.552" fill="#fff"/><rect width="62.81" height="41.5" x="200.887" y="461.552" stroke="#000" stroke-linecap="round" stroke-linejoin="round" stroke-width="1"/><text fill="#000" transform="translate(205.88684 473.078)"><tspan x="11.445" y="15" fill="#000" font-family="Helvetica Neue" font-size="16">SST</tspan></text></g><g id="Graphic_41"><rect width="62.81" height="41.5" x="273.482" y="461.552" fill="#fff"/><rect width="62.81" height="41.5" x="273.482" y="461.552" stroke="#000" stroke-linecap="round" stroke-linejoin="round" stroke-width="1"/><text fill="#000" transform="translate(278.48168 473.078)"><tspan x="11.445" y="15" fill="#000" font-family="Helvetica Neue" font-size="16">SST</tspan></text></g><g id="Graphic_40"><text fill="#000" transform="translate(90 473.078)"><tspan x="0" y="15" fill="#000" font-family="Helvetica Neue" font-size="16">Ln</tspan></text></g><g id="Graphic_39"><rect width="62.81" height="41.5" x="128.292" y="461.552" fill="#fff"/><rect width="62.81" height="41.5" x="128.292" y="461.552" stroke="#000" stroke-linecap="round" stroke-linejoin="round" stroke-width="1"/><text fill="#000" transform="translate(133.292 473.078)"><tspan x="11.445" y="15" fill="#000" font-family="Helvetica Neue" font-size="16">SST</tspan></text></g><g id="Graphic_38"><rect width="62.81" height="41.5" x="346.077" y="461.552" fill="#fff"/><rect width="62.81" height="41.5" x="346.077" y="461.552" stroke="#000" stroke-linecap="round" stroke-linejoin="round" stroke-width="1"/><text fill="#000" transform="translate(351.07652 473.078)"><tspan x="11.445" y="15" fill="#000" font-family="Helvetica Neue" font-size="16">SST</tspan></text></g><g id="Line_37"><line x1="7" x2="697.696" y1="319" y2="319" stroke="#000" stroke-dasharray="4 4" stroke-linecap="round" stroke-linejoin="round" stroke-width="1"/></g><g id="Graphic_36"><text fill="#000" transform="translate(12 325)"><tspan x="0" y="15" fill="#000" font-family="Helvetica Neue" font-size="16">On Disk</tspan></text></g><g id="Graphic_35"><text fill="#000" transform="translate(12 296.552)"><tspan x="0" y="15" fill="#000" font-family="Helvetica Neue" font-size="16">In Memory</tspan></text></g><g id="Graphic_34"><rect width="62.81" height="41.5" x="128.5" y="245.974" fill="#fff"/><rect width="62.81" height="41.5" x="128.5" y="245.974" stroke="#000" stroke-linecap="round" stroke-linejoin="round" stroke-width="1"/><text fill="#000" transform="translate(133.5 248.276)"><tspan x="8.317" y="15" fill="#000" font-family="Helvetica Neue" font-size="16">Mem </tspan> <tspan x="7.589" y="33.448" fill="#000" font-family="Helvetica Neue" font-size="16">Table</tspan></text></g><g id="Graphic_33"><rect width="62.81" height="41.5" x="201.095" y="245.974" fill="#fff"/><rect width="62.81" height="41.5" x="201.095" y="245.974" stroke="#000" stroke-linecap="round" stroke-linejoin="round" stroke-width="1"/><text fill="#000" transform="translate(206.09484 248.276)"><tspan x="8.317" y="15" fill="#000" font-family="Helvetica Neue" font-size="16">Mem </tspan> <tspan x="7.589" y="33.448" fill="#000" font-family="Helvetica Neue" font-size="16">Table</tspan></text></g><g id="Graphic_32"><rect width="62.81" height="41.5" x="273.69" y="245.974" fill="#fff"/><rect width="62.81" height="41.5" x="273.69" y="245.974" stroke="#000" stroke-linecap="round" stroke-linejoin="round" stroke-width="1"/><text fill="#000" transform="translate(278.68968 248.276)"><tspan x="8.317" y="15" fill="#000" font-family="Helvetica Neue" font-size="16">Mem </tspan> <tspan x="7.589" y="33.448" fill="#000" font-family="Helvetica Neue" font-size="16">Table</tspan></text></g><g id="Graphic_30"><rect width="124.083" height="28.448" x="500.317" y="252.052" fill="#fff"/><rect width="124.083" height="28.448" x="500.317" y="252.052" stroke="#000" stroke-linecap="round" stroke-linejoin="round" stroke-width="1"/><text fill="#000" transform="translate(505.31726 257.052)"><tspan x="16.53" y="15" fill="#000" font-family="Helvetica Neue" font-size="16">key + value</tspan></text></g><g id="Line_28"><line x1="159.867" x2="159.754" y1="287.474" y2="348.6" stroke="#000" stroke-linecap="round" stroke-linejoin="round" stroke-width="1" marker-end="url(#FilledArrow_Marker)"/></g><g id="Line_27"><line x1="500.317" x2="346.4" y1="266.384" y2="266.652" stroke="#000" stroke-linecap="round" stroke-linejoin="round" stroke-width="1" marker-end="url(#FilledArrow_Marker)"/></g><g id="Line_23"><path stroke="#000" stroke-linecap="round" stroke-linejoin="round" stroke-width="1" marker-end="url(#FilledArrow_Marker)" d="M 436.92997 383.00897 C 436.92997 383.00897 456.93 404.82856 456.93 434.00897 C 456.93 452.75967 448.67184 468.88394 442.76857 478.01486"/></g><g id="Graphic_58"><text fill="#000" transform="translate(647.968 488.052)"><tspan x="0" y="16" fill="#000" font-family="Helvetica Neue" font-size="16" font-weight="bold">Day 5: Manifest</tspan></text></g><g id="Graphic_59"><rect width="101.046" height="41.5" x="511.836" y="421.304" fill="#fff"/><rect width="101.046" height="41.5" x="511.836" y="421.304" stroke="#000" stroke-linecap="round" stroke-linejoin="round" stroke-width="1"/><text fill="#000" transform="translate(516.8359 432.83)"><tspan x="14.851" y="15" fill="#000" font-family="Helvetica Neue" font-size="16">Manifest</tspan></text></g><g id="Line_69"><line x1="668.606" x2="622.118" y1="483.052" y2="465.114" stroke="#7f8080" stroke-linecap="round" stroke-linejoin="round" stroke-width="1" marker-end="url(#FilledArrow_Marker_2)"/></g></g></g></svg>