<svg xmlns="http://www.w3.org/2000/svg" xmlns:xl="http://www.w3.org/1999/xlink" width="689" height="464" version="1.1" viewBox="271 448 689 464"><g id="week2-00-triangle" fill="none" fill-opacity="1" stroke="none" stroke-dasharray="none" stroke-opacity="1"><title>week2-00-triangle</title><rect width="689" height="464" x="271" y="448" fill="#fff"/><g id="week2-00-triangle_Layer_1"><title>Layer 1</title><g id="Graphic_2"><path fill="#fff" d="M 747.5 806.5 L 564.25 498 L 381 806.5 Z"/><path stroke="gray" stroke-linecap="round" stroke-linejoin="round" stroke-width="1" d="M 747.5 806.5 L 564.25 498 L 381 806.5 Z"/></g><g id="Graphic_20"><circle cx="564.25" cy="681.605" r="57.75" fill="#fff"/><path stroke="gray" stroke-dasharray="4 4" stroke-linecap="round" stroke-linejoin="round" stroke-width="1" d="M 605.0854 640.7696 C 627.63825 663.3224 627.63825 699.8876 605.0854 722.4404 C 582.5326 744.99325 545.9674 744.99325 523.4146 722.4404 C 500.86175 699.8876 500.86175 663.3224 523.4146 640.7696 C 545.9674 618.21675 582.5326 618.21675 605.0854 640.7696"/></g><g id="Graphic_3"><text fill="#000" transform="translate(516.842 474.552)"><tspan x="0" y="15" fill="#000" font-family="Helvetica Neue" font-size="16">Faster Reads</tspan></text></g><g id="Graphic_4"><text fill="#000" transform="translate(293.024 810)"><tspan x="0" y="15" fill="#000" font-family="Helvetica Neue" font-size="16">Less Writes</tspan></text></g><g id="Graphic_5"><text fill="#000" transform="translate(752.5 810)"><tspan x="0" y="15" fill="#000" font-family="Helvetica Neue" font-size="16">Less Space</tspan></text></g><g id="Graphic_6"><text fill="#000" transform="translate(505.9885 453.744)"><tspan x="0" y="10" fill="#000" font-family="Helvetica Neue" font-size="11">Low Read Amplification</tspan></text></g><g id="Graphic_7"><text fill="#000" transform="translate(276.454 838.448)"><tspan x="0" y="10" fill="#000" font-family="Helvetica Neue" font-size="11">Low Write Amplification</tspan></text></g><g id="Graphic_8"><text fill="#000" transform="translate(733.2725 838.448)"><tspan x="0" y="10" fill="#000" font-family="Helvetica Neue" font-size="11">Low Space Amplification</tspan></text></g><g id="Graphic_9"><circle cx="565.75" cy="536.818" r="6.75" fill="#3a8eed"/></g><g id="Graphic_10"><text fill="#000" transform="translate(648.5 520.426)"><tspan x="0" y="15" fill="#000" font-family="Helvetica Neue" font-size="16">Always Full Compaction</tspan> <tspan x="39.214" y="29.448" fill="#000" font-family="Helvetica Neue" font-size="12">(High Write Amp.)</tspan></text></g><g id="Line_11"><line x1="572.5" x2="643.5" y1="536.818" y2="536.818" stroke="#7f8080" stroke-dasharray="4 4" stroke-linecap="round" stroke-linejoin="round" stroke-width="1"/></g><g id="Graphic_14"><circle cx="417.25" cy="791.75" r="6.75" fill="#3a8eed"/></g><g id="Graphic_13"><text fill="#000" transform="translate(422.794 874)"><tspan x="0" y="15" fill="#000" font-family="Helvetica Neue" font-size="16">No Compaction</tspan> <tspan x="9.224" y="29.448" fill="#000" font-family="Helvetica Neue" font-size="12">(High Read Amp.)</tspan></text></g><g id="Line_12"><line x1="420.843" x2="465.804" y1="797.466" y2="869" stroke="#7f8080" stroke-dasharray="4 4" stroke-linecap="round" stroke-linejoin="round" stroke-width="1"/></g><g id="Graphic_17"><circle cx="538.25" cy="658.75" r="6.75" stroke="#003776" stroke-linecap="round" stroke-linejoin="round" stroke-width="1"/></g><g id="Graphic_18"><circle cx="544.75" cy="713.75" r="6.75" stroke="#003776" stroke-linecap="round" stroke-linejoin="round" stroke-width="1"/></g><g id="Graphic_19"><circle cx="589.25" cy="686.25" r="6.75" stroke="#003776" stroke-linecap="round" stroke-linejoin="round" stroke-width="1"/></g><g id="Graphic_21"><text fill="#000" transform="translate(724.5 666.241)"><tspan x="10.654" y="15" fill="#000" font-family="Helvetica Neue" font-size="16">Good Compaction Strategies</tspan> <tspan x="0" y="28.448" fill="#000" font-family="Helvetica Neue" font-size="10">Explore strategies that can balance 3 amplifications</tspan></text></g><g id="Line_22"><line x1="622" x2="719.5" y1="681.605" y2="681.605" stroke="#7f8080" stroke-dasharray="4 4" stroke-linecap="round" stroke-linejoin="round" stroke-width="1"/></g></g></g></svg>