<svg xmlns="http://www.w3.org/2000/svg" xmlns:xl="http://www.w3.org/1999/xlink" width="473" height="245" version="1.1" viewBox="85 204 473 245"><defs><marker id="FilledArrow_Marker" stroke-linejoin="miter" stroke-miterlimit="10" color="#000" markerHeight="8" markerUnits="strokeWidth" markerWidth="10" orient="auto" overflow="visible" viewBox="-1 -4 10 8"><g><path fill="currentColor" stroke="currentColor" stroke-width="1" d="M 8 0 L 0 -3 L 0 3 Z"/></g></marker></defs><g id="week2-02-simple" fill="none" fill-opacity="1" stroke="none" stroke-dasharray="none" stroke-opacity="1"><title>week2-02-simple</title><rect width="473" height="245" x="85" y="204" fill="#fff"/><g id="week2-02-simple_Layer_1"><title>Layer 1</title><g id="Graphic_67"><rect width="150.5" height="112.974" x="119" y="288" fill="#fff"/><path stroke="gray" stroke-dasharray="4 4" stroke-linecap="round" stroke-linejoin="round" stroke-width="1" d="M 119 288 L 269.5 288 L 269.5 400.974 L 119 400.974 Z"/></g><g id="Graphic_47"><rect width="62.81" height="41.5" x="128.292" y="301.974" fill="#fff"/><rect width="62.81" height="41.5" x="128.292" y="301.974" stroke="#000" stroke-linecap="round" stroke-linejoin="round" stroke-width="1"/><text fill="#000" transform="translate(133.292 313.5)"><tspan x="11.445" y="15" fill="#000" font-family="Helvetica Neue" font-size="16">SST</tspan></text></g><g id="Graphic_46"><text fill="#000" transform="translate(90 313.5)"><tspan x="0" y="15" fill="#000" font-family="Helvetica Neue" font-size="16">L0</tspan></text></g><g id="Graphic_45"><rect width="62.81" height="41.5" x="128.5" y="353.5" fill="#fff"/><rect width="62.81" height="41.5" x="128.5" y="353.5" stroke="#000" stroke-linecap="round" stroke-linejoin="round" stroke-width="1"/><text fill="#000" transform="translate(133.5 365.026)"><tspan x="11.445" y="15" fill="#000" font-family="Helvetica Neue" font-size="16">SST</tspan></text></g><g id="Graphic_43"><text fill="#000" transform="translate(90.208 365.026)"><tspan x="0" y="15" fill="#000" font-family="Helvetica Neue" font-size="16">L1</tspan></text></g><g id="Graphic_42"><rect width="62.81" height="41.5" x="200.887" y="406.5" fill="#fff"/><rect width="62.81" height="41.5" x="200.887" y="406.5" stroke="#000" stroke-linecap="round" stroke-linejoin="round" stroke-width="1"/><text fill="#000" transform="translate(205.88684 418.026)"><tspan x="11.445" y="15" fill="#000" font-family="Helvetica Neue" font-size="16">SST</tspan></text></g><g id="Graphic_41"><rect width="62.81" height="41.5" x="273.482" y="406.5" fill="#fff"/><rect width="62.81" height="41.5" x="273.482" y="406.5" stroke="#000" stroke-linecap="round" stroke-linejoin="round" stroke-width="1"/><text fill="#000" transform="translate(278.48168 418.026)"><tspan x="11.445" y="15" fill="#000" font-family="Helvetica Neue" font-size="16">SST</tspan></text></g><g id="Graphic_40"><text fill="#000" transform="translate(90 418.026)"><tspan x="0" y="15" fill="#000" font-family="Helvetica Neue" font-size="16">L2</tspan></text></g><g id="Graphic_39"><rect width="62.81" height="41.5" x="128.292" y="406.5" fill="#fff"/><rect width="62.81" height="41.5" x="128.292" y="406.5" stroke="#000" stroke-linecap="round" stroke-linejoin="round" stroke-width="1"/><text fill="#000" transform="translate(133.292 418.026)"><tspan x="11.445" y="15" fill="#000" font-family="Helvetica Neue" font-size="16">SST</tspan></text></g><g id="Graphic_38"><rect width="62.81" height="41.5" x="346.077" y="406.5" fill="#fff"/><rect width="62.81" height="41.5" x="346.077" y="406.5" stroke="#000" stroke-linecap="round" stroke-linejoin="round" stroke-width="1"/><text fill="#000" transform="translate(351.07652 418.026)"><tspan x="11.445" y="15" fill="#000" font-family="Helvetica Neue" font-size="16">SST</tspan></text></g><g id="Line_69"><line x1="159.697" x2="159.697" y1="204.974" y2="292.074" stroke="#000" stroke-linecap="round" stroke-linejoin="round" stroke-width="1" marker-end="url(#FilledArrow_Marker)"/></g><g id="Graphic_77"><rect width="62.81" height="41.5" x="200.887" y="354.5" fill="#fff"/><rect width="62.81" height="41.5" x="200.887" y="354.5" stroke="#000" stroke-linecap="round" stroke-linejoin="round" stroke-width="1"/><text fill="#000" transform="translate(205.88684 366.026)"><tspan x="11.445" y="15" fill="#000" font-family="Helvetica Neue" font-size="16">SST</tspan></text></g><g id="Graphic_78"><rect width="217.5" height="52.474" x="340" y="348.5" fill="#fff"/><path stroke="gray" stroke-dasharray="4 4" stroke-linecap="round" stroke-linejoin="round" stroke-width="1" d="M 340 348.5 L 557.5 348.5 L 557.5 400.974 L 340 400.974 Z"/></g><g id="Graphic_79"><rect width="62.81" height="41.5" x="346.208" y="354.5" fill="#fff"/><rect width="62.81" height="41.5" x="346.208" y="354.5" stroke="#000" stroke-linecap="round" stroke-linejoin="round" stroke-width="1"/><text fill="#000" transform="translate(351.208 366.026)"><tspan x="11.445" y="15" fill="#000" font-family="Helvetica Neue" font-size="16">SST</tspan></text></g><g id="Graphic_80"><rect width="62.81" height="41.5" x="416.577" y="354.5" fill="#fff"/><rect width="62.81" height="41.5" x="416.577" y="354.5" stroke="#000" stroke-linecap="round" stroke-linejoin="round" stroke-width="1"/><text fill="#000" transform="translate(421.5765 366.026)"><tspan x="11.445" y="15" fill="#000" font-family="Helvetica Neue" font-size="16">SST</tspan></text></g><g id="Graphic_81"><rect width="62.81" height="41.5" x="486.577" y="354.5" fill="#fff"/><rect width="62.81" height="41.5" x="486.577" y="354.5" stroke="#000" stroke-linecap="round" stroke-linejoin="round" stroke-width="1"/><text fill="#000" transform="translate(491.5765 366.026)"><tspan x="11.445" y="15" fill="#000" font-family="Helvetica Neue" font-size="16">SST</tspan></text></g><g id="Line_83"><line x1="269.5" x2="330.169" y1="353.431" y2="360.642" stroke="#000" stroke-linecap="round" stroke-linejoin="round" stroke-width="1" marker-end="url(#FilledArrow_Marker)"/></g><g id="Graphic_84"><text fill="#000" transform="translate(345 313.5)"><tspan x="0" y="15" fill="#000" font-family="Helvetica Neue" font-size="16">Simple Leveled Compaction</tspan></text></g><g id="Graphic_85"><text fill="#000" transform="translate(309 366.026)"><tspan x="0" y="15" fill="#000" font-family="Helvetica Neue" font-size="16">L1</tspan></text></g><g id="Graphic_86"><rect width="62.81" height="41.5" x="418.671" y="406.5" fill="#fff"/><rect width="62.81" height="41.5" x="418.671" y="406.5" stroke="#000" stroke-linecap="round" stroke-linejoin="round" stroke-width="1"/><text fill="#000" transform="translate(423.67136 418.026)"><tspan x="11.445" y="15" fill="#000" font-family="Helvetica Neue" font-size="16">SST</tspan></text></g><g id="Graphic_87"><rect width="62.81" height="41.5" x="490.671" y="406.5" fill="#fff"/><rect width="62.81" height="41.5" x="490.671" y="406.5" stroke="#000" stroke-linecap="round" stroke-linejoin="round" stroke-width="1"/><text fill="#000" transform="translate(495.67136 418.026)"><tspan x="11.445" y="15" fill="#000" font-family="Helvetica Neue" font-size="16">SST</tspan></text></g></g></g></svg>