<svg xmlns="http://www.w3.org/2000/svg" xmlns:xl="http://www.w3.org/1999/xlink" width="693" height="135" version="1.1" viewBox="6 214 693 135"><defs><marker id="FilledArrow_Marker" stroke-linejoin="miter" stroke-miterlimit="10" color="#000" markerHeight="8" markerUnits="strokeWidth" markerWidth="10" orient="auto" overflow="visible" viewBox="-1 -4 10 8"><g><path fill="currentColor" stroke="currentColor" stroke-width="1" d="M 8 0 L 0 -3 L 0 3 Z"/></g></marker><marker id="FilledArrow_Marker_2" stroke-linejoin="miter" stroke-miterlimit="10" color="#7f8080" markerHeight="8" markerUnits="strokeWidth" markerWidth="10" orient="auto" overflow="visible" viewBox="-9 -4 10 8"><g><path fill="currentColor" stroke="currentColor" stroke-width="1" d="M -8 0 L 0 3 L 0 -3 Z"/></g></marker></defs><g id="week1-01-frozen" fill="none" fill-opacity="1" stroke="none" stroke-dasharray="none" stroke-opacity="1"><title>week1-01-frozen</title><rect width="693" height="135" x="6" y="214" fill="#fff"/><g id="week1-01-frozen_Layer_1"><title>Layer 1</title><g id="Line_37"><line x1="7" x2="697.696" y1="319" y2="319" stroke="#000" stroke-dasharray="4 4" stroke-linecap="round" stroke-linejoin="round" stroke-width="1"/></g><g id="Graphic_36"><text fill="#000" transform="translate(12 325)"><tspan x="0" y="15" fill="#000" font-family="Helvetica Neue" font-size="16">On Disk</tspan></text></g><g id="Graphic_35"><text fill="#000" transform="translate(12 296.552)"><tspan x="0" y="15" fill="#000" font-family="Helvetica Neue" font-size="16">In Memory</tspan></text></g><g id="Graphic_32"><rect width="73.31" height="41.5" x="273.69" y="245.974" fill="#fff"/><rect width="73.31" height="41.5" x="273.69" y="245.974" stroke="#000" stroke-linecap="round" stroke-linejoin="round" stroke-width="1"/><text fill="#000" transform="translate(278.68968 257.5)"><tspan x="4.983" y="15" fill="#000" font-family="Helvetica Neue" font-size="16">Current</tspan></text></g><g id="Graphic_30"><rect width="124.083" height="28.448" x="500.317" y="252.052" fill="#fff"/><rect width="124.083" height="28.448" x="500.317" y="252.052" stroke="#000" stroke-linecap="round" stroke-linejoin="round" stroke-width="1"/><text fill="#000" transform="translate(505.31726 257.052)"><tspan x="16.53" y="15" fill="#000" font-family="Helvetica Neue" font-size="16">key + value</tspan></text></g><g id="Line_27"><line x1="500.317" x2="356.9" y1="266.386" y2="266.641" stroke="#000" stroke-linecap="round" stroke-linejoin="round" stroke-width="1" marker-end="url(#FilledArrow_Marker)"/></g><g id="Graphic_38"><rect width="62.81" height="41.5" x="195" y="245.974" fill="#fff"/><rect width="62.81" height="41.5" x="195" y="245.974" stroke="#000" stroke-linecap="round" stroke-linejoin="round" stroke-width="1"/><text fill="#000" transform="translate(200 257.5)"><tspan x="2.117" y="15" fill="#000" font-family="Helvetica Neue" font-size="16">Frozen</tspan></text></g><g id="Line_39"><path stroke="#7f8080" stroke-linecap="round" stroke-linejoin="round" stroke-width="1" marker-start="url(#FilledArrow_Marker_2)" d="M 240.73783 237.3985 C 248.2207 225.4971 258.08746 214.5 269 214.5 C 282.52838 214.5 294.045 231.40123 301.4606 245.974"/></g><g id="Graphic_40"><rect width="62.81" height="41.5" x="116.31" y="245.974" fill="#fff"/><rect width="62.81" height="41.5" x="116.31" y="245.974" stroke="#000" stroke-linecap="round" stroke-linejoin="round" stroke-width="1"/><text fill="#000" transform="translate(121.31032 257.5)"><tspan x="2.117" y="15" fill="#000" font-family="Helvetica Neue" font-size="16">Frozen</tspan></text></g></g></g></svg>